<svg width="163" height="28" viewBox="0 0 163 28" fill="none" xmlns="http://www.w3.org/2000/svg">
<rect x="0.521484" y="0.523438" width="162" height="26.5725" rx="4.30851" fill="#0A0A0A" fill-opacity="0.6"/>
<g clip-path="url(#clip0_3879_12641)">
<mask id="mask0_3879_12641" style="mask-type:luminance" maskUnits="userSpaceOnUse" x="15" y="8" width="12" height="12">
<path d="M15.0703 8.12695H26.4374V19.4941H15.0703V8.12695Z" fill="white"/>
<path d="M16.951 12.9309C16.9133 12.8778 16.8861 12.8175 16.871 12.7535C16.8559 12.6894 16.8531 12.6228 16.863 12.5576C16.8728 12.4925 16.895 12.43 16.9282 12.3738C16.9614 12.3176 17.0051 12.2688 17.0566 12.2303C17.1081 12.1918 17.1664 12.1643 17.2282 12.1495C17.29 12.1346 17.354 12.1327 17.4165 12.1438C17.4791 12.1549 17.5388 12.1788 17.5924 12.2142C17.6459 12.2495 17.6922 12.2956 17.7285 12.3496C17.8741 12.5603 18.0986 12.7615 18.3893 12.9359C19.0083 13.3074 19.8663 13.5256 20.789 13.5256C21.7121 13.5256 22.5701 13.3079 23.1891 12.9359C23.4798 12.7615 23.7043 12.5603 23.8499 12.3496C23.8862 12.2956 23.9325 12.2495 23.986 12.2142C24.0396 12.1788 24.0994 12.1549 24.1619 12.1438C24.2244 12.1327 24.2884 12.1346 24.3502 12.1495C24.412 12.1643 24.4703 12.1918 24.5218 12.2303C24.5733 12.2688 24.617 12.3176 24.6502 12.3738C24.6835 12.43 24.7056 12.4925 24.7155 12.5576C24.7253 12.6228 24.7226 12.6894 24.7074 12.7535C24.6923 12.8175 24.6651 12.8778 24.6274 12.9309C24.3976 13.2641 24.0701 13.557 23.6679 13.7985C22.8961 14.2617 21.8734 14.5217 20.789 14.5217C19.7045 14.5217 18.6823 14.2617 17.9105 13.7985C17.5083 13.557 17.1808 13.2641 16.951 12.9309Z" fill="black"/>
<path d="M21.4084 14.2738C21.4084 14.1417 21.358 14.015 21.2682 13.9216C21.1784 13.8282 21.0566 13.7757 20.9296 13.7757C20.8026 13.7757 20.6808 13.8282 20.5911 13.9216C20.5013 14.015 20.4508 14.1417 20.4508 14.2738V15.5189C20.4508 15.651 20.5013 15.7777 20.5911 15.8711C20.6808 15.9645 20.8026 16.017 20.9296 16.017C21.0566 16.017 21.1784 15.9645 21.2682 15.8711C21.358 15.7777 21.4084 15.651 21.4084 15.5189V14.2738ZM18.7894 14.1532C18.8219 14.0271 18.9008 13.9193 19.009 13.853C19.1173 13.7868 19.2462 13.7674 19.368 13.7991C19.4898 13.8308 19.5948 13.911 19.6603 14.0224C19.7258 14.1338 19.7466 14.2675 19.7183 14.3948L19.4789 15.3909C19.4645 15.4553 19.438 15.5161 19.4008 15.5698C19.3636 15.6234 19.3165 15.6688 19.2623 15.7033C19.2081 15.7378 19.1478 15.7607 19.085 15.7708C19.0221 15.7808 18.958 15.7777 18.8963 15.7616C18.8347 15.7456 18.7767 15.7169 18.7258 15.6773C18.6749 15.6377 18.632 15.588 18.5998 15.531C18.5676 15.474 18.5466 15.4109 18.538 15.3454C18.5295 15.2799 18.5335 15.2132 18.55 15.1494L18.7894 14.1532ZM22.8304 14.1532C22.7979 14.0271 22.719 13.9193 22.6108 13.853C22.5026 13.7868 22.3737 13.7674 22.2518 13.7991C22.13 13.8308 22.0251 13.911 21.9595 14.0224C21.894 14.1338 21.8732 14.2675 21.9016 14.3948L22.1409 15.3909C22.1553 15.4553 22.1819 15.5161 22.219 15.5698C22.2562 15.6234 22.3033 15.6688 22.3575 15.7033C22.4117 15.7378 22.472 15.7607 22.5349 15.7708C22.5977 15.7808 22.6618 15.7777 22.7235 15.7616C22.7852 15.7456 22.8431 15.7169 22.8941 15.6773C22.945 15.6377 22.9878 15.588 23.02 15.531C23.0523 15.474 23.0733 15.4109 23.0818 15.3454C23.0904 15.2799 23.0863 15.2132 23.0698 15.1494L22.8304 14.1532ZM24.0537 12.9255C24.0096 12.8779 23.9567 12.84 23.8983 12.8139C23.8399 12.7878 23.7771 12.774 23.7135 12.7735C23.6499 12.7729 23.5869 12.7855 23.528 12.8105C23.4692 12.8356 23.4157 12.8726 23.3708 12.9193C23.3258 12.9661 23.2903 13.0217 23.2662 13.0829C23.2421 13.1441 23.23 13.2097 23.2306 13.2758C23.2311 13.342 23.2443 13.4073 23.2694 13.4681C23.2945 13.5289 23.331 13.5838 23.3767 13.6298L24.3343 14.6259C24.4246 14.7166 24.5455 14.7668 24.6711 14.7657C24.7966 14.7646 24.9167 14.7122 25.0055 14.6198C25.0942 14.5275 25.1446 14.4026 25.1457 14.272C25.1468 14.1414 25.0985 14.0156 25.0113 13.9216L24.0537 12.9255ZM17.6154 12.9424C17.7009 12.8447 17.8202 12.7862 17.947 12.78C18.0739 12.7737 18.198 12.8202 18.2919 12.9091C18.3859 12.998 18.4421 13.122 18.4481 13.254C18.4541 13.386 18.4095 13.5151 18.324 13.6128L17.4536 14.609C17.4113 14.6574 17.3602 14.6966 17.3033 14.7245C17.2464 14.7524 17.1848 14.7683 17.122 14.7714C17.0591 14.7745 16.9963 14.7647 16.9372 14.7426C16.878 14.7204 16.8236 14.6863 16.7771 14.6423C16.7305 14.5983 16.6928 14.5452 16.666 14.486C16.6392 14.4268 16.6239 14.3627 16.6209 14.2974C16.6179 14.232 16.6273 14.1667 16.6486 14.1051C16.6699 14.0436 16.7027 13.987 16.745 13.9386L17.6154 12.9424Z" fill="black"/>
</mask>
<g mask="url(#mask0_3879_12641)">
<path d="M20.7531 19.4941C23.8921 19.4941 26.4367 16.9495 26.4367 13.8105C26.4367 10.6716 23.8921 8.12695 20.7531 8.12695C17.6142 8.12695 15.0696 10.6716 15.0696 13.8105C15.0696 16.9495 17.6142 19.4941 20.7531 19.4941Z" fill="white"/>
</g>
</g>
<path d="M31.3411 18.0098V11.8095H33.2543C33.8448 11.8095 34.3674 11.9424 34.8221 12.2081C35.2827 12.4679 35.6429 12.8311 35.9027 13.2976C36.1625 13.7641 36.2924 14.3014 36.2924 14.9096C36.2924 15.512 36.1625 16.0464 35.9027 16.5128C35.6429 16.9793 35.2827 17.3455 34.8221 17.6112C34.3674 17.8769 33.8448 18.0098 33.2543 18.0098H31.3411ZM32.2091 17.1949H33.2543C33.5554 17.1949 33.8359 17.1388 34.0958 17.0266C34.3556 16.9085 34.5829 16.7461 34.7778 16.5394C34.9785 16.3268 35.1321 16.0818 35.2384 15.8042C35.3506 15.5267 35.4067 15.2285 35.4067 14.9096C35.4067 14.5908 35.3506 14.2926 35.2384 14.015C35.1321 13.7375 34.9785 13.4954 34.7778 13.2887C34.5829 13.0761 34.3556 12.9138 34.0958 12.8016C33.8359 12.6835 33.5554 12.6244 33.2543 12.6244H32.2091V17.1949ZM37.7752 15.6271C37.7752 15.1488 37.8667 14.7591 38.0498 14.4579C38.2328 14.1568 38.469 13.9324 38.7584 13.7847C39.0477 13.6371 39.3518 13.5633 39.6707 13.5633V14.3605C39.405 14.3605 39.1511 14.4018 38.909 14.4845C38.6728 14.5612 38.4779 14.6912 38.3244 14.8742C38.1768 15.0514 38.1029 15.2935 38.1029 15.6005L37.7752 15.6271ZM37.2615 18.0098V13.581H38.1029V18.0098H37.2615ZM42.3513 18.1161C41.9084 18.1161 41.5187 18.0186 41.1821 17.8238C40.8455 17.623 40.5798 17.3484 40.3849 17C40.196 16.6516 40.1015 16.2501 40.1015 15.7954C40.1015 15.3407 40.196 14.9392 40.3849 14.5908C40.5739 14.2424 40.8367 13.9707 41.1732 13.7759C41.5098 13.5751 41.8966 13.4747 42.3336 13.4747C42.7705 13.4747 43.1573 13.5751 43.4939 13.7759C43.8305 13.9707 44.0933 14.2424 44.2822 14.5908C44.4712 14.9392 44.5657 15.3407 44.5657 15.7954C44.5657 16.2501 44.4712 16.6516 44.2822 17C44.0933 17.3484 43.8305 17.623 43.4939 17.8238C43.1632 18.0186 42.7823 18.1161 42.3513 18.1161ZM42.3513 17.3455C42.617 17.3455 42.8532 17.2805 43.0599 17.1506C43.2666 17.0148 43.426 16.8317 43.5382 16.6014C43.6563 16.3711 43.7153 16.1025 43.7153 15.7954C43.7153 15.4883 43.6563 15.2197 43.5382 14.9894C43.426 14.7591 43.2636 14.579 43.051 14.4491C42.8384 14.3132 42.5993 14.2453 42.3336 14.2453C42.0619 14.2453 41.8228 14.3132 41.6161 14.4491C41.4094 14.579 41.247 14.7591 41.1289 14.9894C41.0108 15.2197 40.9518 15.4883 40.9518 15.7954C40.9518 16.1025 41.0108 16.3711 41.1289 16.6014C41.247 16.8317 41.4124 17.0148 41.625 17.1506C41.8375 17.2805 42.0797 17.3455 42.3513 17.3455ZM49.4059 18.0098L50.9028 13.581H51.7442L50.2385 18.0098H49.4059ZM46.4209 18.0098L47.8912 13.581H48.653L47.2003 18.0098H46.4209ZM46.3589 18.0098L44.8531 13.581H45.7034L47.1649 18.0098H46.3589ZM49.4059 18.0098L47.9532 13.581H48.7238L50.1853 18.0098H49.4059ZM54.0016 18.1161C53.6886 18.1161 53.4081 18.0688 53.1601 17.9743C52.918 17.8799 52.7113 17.7529 52.5401 17.5935C52.3748 17.434 52.2508 17.2539 52.1681 17.0532L52.8944 16.7343C52.9889 16.9173 53.1306 17.0679 53.3196 17.186C53.5085 17.3041 53.7182 17.3632 53.9484 17.3632C54.2024 17.3632 54.412 17.3159 54.5773 17.2214C54.7427 17.127 54.8253 16.9941 54.8253 16.8229C54.8253 16.6575 54.7633 16.5276 54.6393 16.4331C54.5153 16.3387 54.3352 16.2619 54.099 16.2028L53.6827 16.0965C53.2694 15.9844 52.9475 15.8161 52.7173 15.5917C52.4929 15.3673 52.3807 15.1134 52.3807 14.8299C52.3807 14.3989 52.5194 14.0652 52.797 13.829C53.0745 13.5928 53.4849 13.4747 54.0282 13.4747C54.2939 13.4747 54.536 13.5131 54.7545 13.5899C54.9789 13.6666 55.1678 13.7759 55.3214 13.9176C55.4808 14.0593 55.593 14.2276 55.6579 14.4225L54.9493 14.7413C54.8785 14.5642 54.7574 14.4343 54.5862 14.3516C54.4149 14.263 54.2142 14.2188 53.9839 14.2188C53.7477 14.2188 53.5617 14.2719 53.4259 14.3782C53.29 14.4786 53.2221 14.6203 53.2221 14.8034C53.2221 14.9037 53.2782 15.0012 53.3904 15.0956C53.5085 15.1842 53.6798 15.258 53.9042 15.3171L54.3825 15.4322C54.6718 15.5031 54.911 15.6123 55.0999 15.76C55.2889 15.9017 55.4306 16.0641 55.5251 16.2471C55.6196 16.4243 55.6668 16.6103 55.6668 16.8051C55.6668 17.0709 55.593 17.3041 55.4454 17.5049C55.3036 17.6998 55.1058 17.8503 54.8519 17.9566C54.6039 18.0629 54.3205 18.1161 54.0016 18.1161ZM56.5952 18.0098V13.581H57.4367V18.0098H56.5952ZM57.0204 12.6421C56.8846 12.6421 56.7665 12.5919 56.6661 12.4915C56.5657 12.3853 56.5155 12.2642 56.5155 12.1284C56.5155 11.9867 56.5657 11.8686 56.6661 11.7741C56.7665 11.6737 56.8846 11.6235 57.0204 11.6235C57.1621 11.6235 57.2802 11.6737 57.3747 11.7741C57.4751 11.8686 57.5253 11.9867 57.5253 12.1284C57.5253 12.2642 57.4751 12.3853 57.3747 12.4915C57.2802 12.5919 57.1621 12.6421 57.0204 12.6421ZM58.67 18.0098V13.581H59.4583L59.5114 14.3959V18.0098H58.67ZM61.7347 18.0098V15.7422H62.5761V18.0098H61.7347ZM61.7347 15.7422C61.7347 15.3407 61.6874 15.0366 61.5929 14.8299C61.5044 14.6173 61.3774 14.4697 61.2121 14.387C61.0526 14.3044 60.8666 14.2601 60.6541 14.2542C60.2938 14.2542 60.0134 14.3811 59.8126 14.6351C59.6118 14.889 59.5114 15.2462 59.5114 15.7068H59.1483C59.1483 15.2403 59.2162 14.8417 59.352 14.5111C59.4937 14.1745 59.6915 13.9176 59.9455 13.7405C60.2053 13.5633 60.5123 13.4747 60.8666 13.4747C61.215 13.4747 61.5162 13.5456 61.7701 13.6873C62.0299 13.829 62.2277 14.0505 62.3636 14.3516C62.5053 14.6469 62.5761 15.0366 62.5761 15.5208V15.7422H61.7347ZM65.5925 18.1161C65.1615 18.1161 64.7806 18.0186 64.4499 17.8238C64.1192 17.623 63.8594 17.3484 63.6704 17C63.4815 16.6516 63.387 16.2501 63.387 15.7954C63.387 15.3407 63.4815 14.9392 63.6704 14.5908C63.8594 14.2424 64.1192 13.9707 64.4499 13.7759C64.7865 13.5751 65.1703 13.4747 65.6014 13.4747C66.0088 13.4747 66.3661 13.5781 66.6731 13.7847C66.9802 13.9855 67.2194 14.2749 67.3906 14.6528C67.5677 15.0248 67.6563 15.4647 67.6563 15.9725H64.0779L64.2373 15.8397C64.2373 16.1526 64.2993 16.4243 64.4233 16.6546C64.5473 16.8849 64.7156 17.062 64.9282 17.186C65.1408 17.3041 65.3829 17.3632 65.6545 17.3632C65.9498 17.3632 66.1948 17.2953 66.3897 17.1594C66.5905 17.0177 66.747 16.8406 66.8591 16.628L67.5855 16.9646C67.4674 17.1949 67.3138 17.3986 67.1249 17.5757C66.9359 17.747 66.7115 17.8799 66.4517 17.9743C66.1978 18.0688 65.9114 18.1161 65.5925 18.1161ZM64.2905 15.4411L64.1222 15.3082H66.9211L66.7617 15.4411C66.7617 15.1813 66.7086 14.9598 66.6023 14.7768C66.496 14.5878 66.3543 14.4461 66.1771 14.3516C66 14.2512 65.8022 14.201 65.5837 14.201C65.3711 14.201 65.1644 14.2512 64.9636 14.3516C64.7688 14.4461 64.6064 14.5849 64.4765 14.7679C64.3525 14.951 64.2905 15.1754 64.2905 15.4411ZM70.0731 18.1161C69.7601 18.1161 69.4796 18.0688 69.2316 17.9743C68.9895 17.8799 68.7829 17.7529 68.6116 17.5935C68.4463 17.434 68.3223 17.2539 68.2396 17.0532L68.9659 16.7343C69.0604 16.9173 69.2021 17.0679 69.3911 17.186C69.58 17.3041 69.7897 17.3632 70.02 17.3632C70.2739 17.3632 70.4835 17.3159 70.6488 17.2214C70.8142 17.127 70.8968 16.9941 70.8968 16.8229C70.8968 16.6575 70.8348 16.5276 70.7108 16.4331C70.5868 16.3387 70.4067 16.2619 70.1705 16.2028L69.7542 16.0965C69.3409 15.9844 69.0191 15.8161 68.7888 15.5917C68.5644 15.3673 68.4522 15.1134 68.4522 14.8299C68.4522 14.3989 68.5909 14.0652 68.8685 13.829C69.146 13.5928 69.5564 13.4747 70.0997 13.4747C70.3654 13.4747 70.6075 13.5131 70.826 13.5899C71.0504 13.6666 71.2393 13.7759 71.3929 13.9176C71.5523 14.0593 71.6645 14.2276 71.7295 14.4225L71.0209 14.7413C70.95 14.5642 70.8289 14.4343 70.6577 14.3516C70.4865 14.263 70.2857 14.2188 70.0554 14.2188C69.8192 14.2188 69.6332 14.2719 69.4974 14.3782C69.3615 14.4786 69.2936 14.6203 69.2936 14.8034C69.2936 14.9037 69.3497 15.0012 69.4619 15.0956C69.58 15.1842 69.7513 15.258 69.9757 15.3171L70.454 15.4322C70.7433 15.5031 70.9825 15.6123 71.1714 15.76C71.3604 15.9017 71.5021 16.0641 71.5966 16.2471C71.6911 16.4243 71.7383 16.6103 71.7383 16.8051C71.7383 17.0709 71.6645 17.3041 71.5169 17.5049C71.3752 17.6998 71.1773 17.8503 70.9234 17.9566C70.6754 18.0629 70.392 18.1161 70.0731 18.1161ZM74.1905 18.1161C73.8775 18.1161 73.597 18.0688 73.349 17.9743C73.1069 17.8799 72.9002 17.7529 72.729 17.5935C72.5636 17.434 72.4396 17.2539 72.357 17.0532L73.0833 16.7343C73.1777 16.9173 73.3195 17.0679 73.5084 17.186C73.6974 17.3041 73.907 17.3632 74.1373 17.3632C74.3912 17.3632 74.6009 17.3159 74.7662 17.2214C74.9315 17.127 75.0142 16.9941 75.0142 16.8229C75.0142 16.6575 74.9522 16.5276 74.8282 16.4331C74.7042 16.3387 74.5241 16.2619 74.2879 16.2028L73.8716 16.0965C73.4582 15.9844 73.1364 15.8161 72.9061 15.5917C72.6817 15.3673 72.5695 15.1134 72.5695 14.8299C72.5695 14.3989 72.7083 14.0652 72.9858 13.829C73.2634 13.5928 73.6738 13.4747 74.217 13.4747C74.4828 13.4747 74.7249 13.5131 74.9433 13.5899C75.1677 13.6666 75.3567 13.7759 75.5102 13.9176C75.6697 14.0593 75.7819 14.2276 75.8468 14.4225L75.1382 14.7413C75.0673 14.5642 74.9463 14.4343 74.775 14.3516C74.6038 14.263 74.403 14.2188 74.1727 14.2188C73.9365 14.2188 73.7505 14.2719 73.6147 14.3782C73.4789 14.4786 73.411 14.6203 73.411 14.8034C73.411 14.9037 73.4671 15.0012 73.5793 15.0956C73.6974 15.1842 73.8686 15.258 74.093 15.3171L74.5713 15.4322C74.8607 15.5031 75.0998 15.6123 75.2888 15.76C75.4777 15.9017 75.6195 16.0641 75.7139 16.2471C75.8084 16.4243 75.8557 16.6103 75.8557 16.8051C75.8557 17.0709 75.7819 17.3041 75.6342 17.5049C75.4925 17.6998 75.2947 17.8503 75.0408 17.9566C74.7928 18.0629 74.5093 18.1161 74.1905 18.1161ZM82.1353 18.0098L82.0999 17.186V11.8095H82.9325V18.0098H82.1353ZM80.6472 18.1161C80.2457 18.1161 79.8943 18.0186 79.5932 17.8238C79.2979 17.6289 79.0647 17.3573 78.8934 17.0089C78.7281 16.6605 78.6454 16.256 78.6454 15.7954C78.6454 15.3289 78.7281 14.9244 78.8934 14.5819C79.0647 14.2335 79.2979 13.9619 79.5932 13.767C79.8943 13.5722 80.2457 13.4747 80.6472 13.4747C81.0192 13.4747 81.3411 13.5722 81.6127 13.767C81.8902 13.9619 82.1028 14.2335 82.2504 14.5819C82.3981 14.9244 82.4719 15.3289 82.4719 15.7954C82.4719 16.256 82.3981 16.6605 82.2504 17.0089C82.1028 17.3573 81.8902 17.6289 81.6127 17.8238C81.3411 18.0186 81.0192 18.1161 80.6472 18.1161ZM80.8421 17.3543C81.0901 17.3543 81.3086 17.2894 81.4975 17.1594C81.6865 17.0236 81.8341 16.8406 81.9404 16.6103C82.0467 16.3741 82.0999 16.1025 82.0999 15.7954C82.0999 15.4883 82.0467 15.2197 81.9404 14.9894C81.8341 14.7532 81.6865 14.5701 81.4975 14.4402C81.3086 14.3044 81.0871 14.2365 80.8332 14.2365C80.5734 14.2365 80.3431 14.3044 80.1423 14.4402C79.9416 14.5701 79.7851 14.7532 79.6729 14.9894C79.5607 15.2197 79.5046 15.4883 79.5046 15.7954C79.5046 16.1025 79.5607 16.3741 79.6729 16.6103C79.791 16.8406 79.9504 17.0236 80.1512 17.1594C80.352 17.2894 80.5823 17.3543 80.8421 17.3543ZM86.0582 18.1161C85.6271 18.1161 85.2462 18.0186 84.9156 17.8238C84.5849 17.623 84.3251 17.3484 84.1361 17C83.9471 16.6516 83.8527 16.2501 83.8527 15.7954C83.8527 15.3407 83.9471 14.9392 84.1361 14.5908C84.3251 14.2424 84.5849 13.9707 84.9156 13.7759C85.2522 13.5751 85.636 13.4747 86.067 13.4747C86.4745 13.4747 86.8317 13.5781 87.1388 13.7847C87.4459 13.9855 87.685 14.2749 87.8563 14.6528C88.0334 15.0248 88.122 15.4647 88.122 15.9725H84.5436L84.703 15.8397C84.703 16.1526 84.765 16.4243 84.889 16.6546C85.013 16.8849 85.1813 17.062 85.3939 17.186C85.6065 17.3041 85.8486 17.3632 86.1202 17.3632C86.4154 17.3632 86.6605 17.2953 86.8554 17.1594C87.0561 17.0177 87.2126 16.8406 87.3248 16.628L88.0511 16.9646C87.933 17.1949 87.7795 17.3986 87.5905 17.5757C87.4016 17.747 87.1772 17.8799 86.9174 17.9743C86.6634 18.0688 86.3771 18.1161 86.0582 18.1161ZM84.7561 15.4411L84.5878 15.3082H87.3868L87.2274 15.4411C87.2274 15.1813 87.1742 14.9598 87.0679 14.7768C86.9616 14.5878 86.8199 14.4461 86.6428 14.3516C86.4656 14.2512 86.2678 14.201 86.0493 14.201C85.8367 14.201 85.6301 14.2512 85.4293 14.3516C85.2344 14.4461 85.072 14.5849 84.9421 14.7679C84.8181 14.951 84.7561 15.1754 84.7561 15.4411ZM90.6628 18.1161C90.2199 18.1161 89.8774 18.0039 89.6353 17.7795C89.3932 17.5492 89.2721 17.2214 89.2721 16.7963V12.1992H90.1136V16.6723C90.1136 16.8908 90.1667 17.0591 90.273 17.1772C90.3852 17.2894 90.5447 17.3455 90.7513 17.3455C90.8104 17.3455 90.8753 17.3336 90.9462 17.31C91.0171 17.2864 91.1027 17.2392 91.2031 17.1683L91.5219 17.8238C91.3684 17.9241 91.2208 17.998 91.0791 18.0452C90.9433 18.0924 90.8045 18.1161 90.6628 18.1161ZM88.5193 14.3073V13.581H91.3714V14.3073H88.5193ZM94.2756 18.1161C93.8445 18.1161 93.4637 18.0186 93.133 17.8238C92.8023 17.623 92.5425 17.3484 92.3535 17C92.1646 16.6516 92.0701 16.2501 92.0701 15.7954C92.0701 15.3407 92.1646 14.9392 92.3535 14.5908C92.5425 14.2424 92.8023 13.9707 93.133 13.7759C93.4696 13.5751 93.8534 13.4747 94.2844 13.4747C94.6919 13.4747 95.0491 13.5781 95.3562 13.7847C95.6633 13.9855 95.9024 14.2749 96.0737 14.6528C96.2508 15.0248 96.3394 15.4647 96.3394 15.9725H92.761L92.9204 15.8397C92.9204 16.1526 92.9824 16.4243 93.1064 16.6546C93.2304 16.8849 93.3987 17.062 93.6113 17.186C93.8239 17.3041 94.066 17.3632 94.3376 17.3632C94.6328 17.3632 94.8779 17.2953 95.0728 17.1594C95.2735 17.0177 95.43 16.8406 95.5422 16.628L96.2685 16.9646C96.1504 17.1949 95.9969 17.3986 95.8079 17.5757C95.619 17.747 95.3946 17.8799 95.1348 17.9743C94.8808 18.0688 94.5945 18.1161 94.2756 18.1161ZM92.9735 15.4411L92.8052 15.3082H95.6042L95.4448 15.4411C95.4448 15.1813 95.3916 14.9598 95.2853 14.7768C95.1791 14.5878 95.0373 14.4461 94.8602 14.3516C94.683 14.2512 94.4852 14.201 94.2667 14.201C94.0542 14.201 93.8475 14.2512 93.6467 14.3516C93.4518 14.4461 93.2895 14.5849 93.1595 14.7679C93.0355 14.951 92.9735 15.1754 92.9735 15.4411ZM99.1902 18.1161C98.7473 18.1161 98.3546 18.0186 98.0121 17.8238C97.6696 17.623 97.401 17.3484 97.2061 17C97.0171 16.6516 96.9227 16.2501 96.9227 15.7954C96.9227 15.3407 97.0171 14.9392 97.2061 14.5908C97.401 14.2424 97.6667 13.9707 98.0033 13.7759C98.3458 13.5751 98.7355 13.4747 99.1725 13.4747C99.6035 13.4747 99.9903 13.5751 100.333 13.7759C100.681 13.9767 100.941 14.263 101.112 14.6351L100.351 14.9539C100.238 14.7354 100.076 14.5642 99.8633 14.4402C99.6567 14.3162 99.4175 14.2542 99.1459 14.2542C98.8802 14.2542 98.644 14.3191 98.4373 14.4491C98.2306 14.579 98.0682 14.762 97.9501 14.9982C97.832 15.2285 97.773 15.4942 97.773 15.7954C97.773 16.0965 97.832 16.3623 97.9501 16.5926C98.0682 16.8229 98.2336 17.0059 98.4461 17.1417C98.6587 17.2716 98.8979 17.3366 99.1636 17.3366C99.4352 17.3366 99.6773 17.2687 99.8899 17.1329C100.103 16.9912 100.262 16.8022 100.368 16.566L101.139 16.876C100.968 17.2657 100.708 17.5698 100.359 17.7883C100.017 18.0068 99.6271 18.1161 99.1902 18.1161ZM103.681 18.1161C103.238 18.1161 102.896 18.0039 102.653 17.7795C102.411 17.5492 102.29 17.2214 102.29 16.7963V12.1992H103.132V16.6723C103.132 16.8908 103.185 17.0591 103.291 17.1772C103.403 17.2894 103.563 17.3455 103.769 17.3455C103.828 17.3455 103.893 17.3336 103.964 17.31C104.035 17.2864 104.121 17.2392 104.221 17.1683L104.54 17.8238C104.387 17.9241 104.239 17.998 104.097 18.0452C103.961 18.0924 103.823 18.1161 103.681 18.1161ZM101.537 14.3073V13.581H104.389V14.3073H101.537ZM107.294 18.1161C106.863 18.1161 106.482 18.0186 106.151 17.8238C105.82 17.623 105.561 17.3484 105.372 17C105.183 16.6516 105.088 16.2501 105.088 15.7954C105.088 15.3407 105.183 14.9392 105.372 14.5908C105.561 14.2424 105.82 13.9707 106.151 13.7759C106.488 13.5751 106.871 13.4747 107.303 13.4747C107.71 13.4747 108.067 13.5781 108.374 13.7847C108.681 13.9855 108.921 14.2749 109.092 14.6528C109.269 15.0248 109.357 15.4647 109.357 15.9725H105.779L105.938 15.8397C105.938 16.1526 106 16.4243 106.124 16.6546C106.249 16.8849 106.417 17.062 106.629 17.186C106.842 17.3041 107.084 17.3632 107.356 17.3632C107.651 17.3632 107.896 17.2953 108.091 17.1594C108.292 17.0177 108.448 16.8406 108.56 16.628L109.287 16.9646C109.169 17.1949 109.015 17.3986 108.826 17.5757C108.637 17.747 108.413 17.8799 108.153 17.9743C107.899 18.0688 107.613 18.1161 107.294 18.1161ZM105.992 15.4411L105.823 15.3082H108.622L108.463 15.4411C108.463 15.1813 108.41 14.9598 108.303 14.7768C108.197 14.5878 108.055 14.4461 107.878 14.3516C107.701 14.2512 107.503 14.201 107.285 14.201C107.072 14.201 106.866 14.2512 106.665 14.3516C106.47 14.4461 106.308 14.5849 106.178 14.7679C106.054 14.951 105.992 15.1754 105.992 15.4411ZM113.431 18.0098L113.395 17.186V11.8095H114.228V18.0098H113.431ZM111.943 18.1161C111.541 18.1161 111.19 18.0186 110.889 17.8238C110.593 17.6289 110.36 17.3573 110.189 17.0089C110.023 16.6605 109.941 16.256 109.941 15.7954C109.941 15.3289 110.023 14.9244 110.189 14.5819C110.36 14.2335 110.593 13.9619 110.889 13.767C111.19 13.5722 111.541 13.4747 111.943 13.4747C112.315 13.4747 112.636 13.5722 112.908 13.767C113.186 13.9619 113.398 14.2335 113.546 14.5819C113.693 14.9244 113.767 15.3289 113.767 15.7954C113.767 16.256 113.693 16.6605 113.546 17.0089C113.398 17.3573 113.186 17.6289 112.908 17.8238C112.636 18.0186 112.315 18.1161 111.943 18.1161ZM112.137 17.3543C112.385 17.3543 112.604 17.2894 112.793 17.1594C112.982 17.0236 113.129 16.8406 113.236 16.6103C113.342 16.3741 113.395 16.1025 113.395 15.7954C113.395 15.4883 113.342 15.2197 113.236 14.9894C113.129 14.7532 112.982 14.5701 112.793 14.4402C112.604 14.3044 112.382 14.2365 112.129 14.2365C111.869 14.2365 111.638 14.3044 111.438 14.4402C111.237 14.5701 111.08 14.7532 110.968 14.9894C110.856 15.2197 110.8 15.4883 110.8 15.7954C110.8 16.1025 110.856 16.3741 110.968 16.6103C111.086 16.8406 111.246 17.0236 111.447 17.1594C111.647 17.2894 111.878 17.3543 112.137 17.3543ZM115.981 14.6705C115.833 14.6705 115.703 14.6173 115.591 14.5111C115.485 14.4048 115.431 14.2749 115.431 14.1213C115.431 13.9678 115.485 13.8379 115.591 13.7316C115.703 13.6253 115.833 13.5722 115.981 13.5722C116.134 13.5722 116.264 13.6253 116.37 13.7316C116.483 13.8379 116.539 13.9678 116.539 14.1213C116.539 14.2749 116.483 14.4048 116.37 14.5111C116.264 14.6173 116.134 14.6705 115.981 14.6705ZM115.998 18.0275C115.845 18.0275 115.712 17.9743 115.6 17.868C115.493 17.7559 115.44 17.623 115.44 17.4695C115.44 17.3218 115.493 17.1949 115.6 17.0886C115.712 16.9764 115.845 16.9203 115.998 16.9203C116.146 16.9203 116.273 16.9764 116.379 17.0886C116.491 17.1949 116.547 17.3218 116.547 17.4695C116.547 17.623 116.491 17.7559 116.379 17.868C116.273 17.9743 116.146 18.0275 115.998 18.0275ZM121.736 18.1161C121.417 18.1161 121.128 18.0688 120.868 17.9743C120.608 17.8799 120.39 17.7499 120.212 17.5846C120.035 17.4193 119.899 17.2392 119.805 17.0443L120.558 16.6989C120.617 16.7815 120.691 16.876 120.779 16.9823C120.868 17.0827 120.986 17.1683 121.134 17.2392C121.281 17.31 121.464 17.3455 121.683 17.3455C122.055 17.3455 122.35 17.2392 122.569 17.0266C122.793 16.814 122.905 16.5453 122.905 16.2206C122.905 15.9784 122.84 15.7747 122.71 15.6094C122.58 15.4381 122.388 15.3082 122.134 15.2197C121.886 15.1311 121.582 15.0868 121.222 15.0868H121.001V14.4313H121.204C121.571 14.4313 121.907 14.4727 122.214 14.5553C122.527 14.638 122.802 14.762 123.038 14.9274C123.274 15.0868 123.457 15.2817 123.587 15.512C123.717 15.7422 123.782 16.005 123.782 16.3003C123.782 16.6664 123.688 16.9882 123.499 17.2657C123.315 17.5374 123.067 17.747 122.755 17.8946C122.447 18.0422 122.108 18.1161 121.736 18.1161ZM121.001 14.9805V14.3516H121.222C121.706 14.3516 122.084 14.2689 122.356 14.1036C122.628 13.9383 122.763 13.705 122.763 13.4039C122.763 13.2326 122.716 13.0791 122.622 12.9433C122.533 12.8016 122.406 12.6894 122.241 12.6067C122.081 12.5181 121.889 12.4738 121.665 12.4738C121.523 12.4738 121.385 12.4975 121.249 12.5447C121.119 12.586 120.998 12.651 120.886 12.7396C120.773 12.8222 120.676 12.9315 120.593 13.0673L119.867 12.7396C119.967 12.5211 120.109 12.3351 120.292 12.1815C120.475 12.028 120.688 11.9099 120.93 11.8272C121.172 11.7446 121.429 11.7032 121.7 11.7032C122.072 11.7032 122.403 11.7741 122.693 11.9158C122.982 12.0575 123.209 12.2524 123.375 12.5004C123.546 12.7484 123.631 13.0289 123.631 13.3419C123.631 13.6076 123.566 13.8438 123.437 14.0505C123.313 14.2512 123.138 14.4225 122.914 14.5642C122.69 14.7 122.43 14.8034 122.134 14.8742C121.845 14.9451 121.532 14.9805 121.196 14.9805H121.001ZM128.627 18.1161C128.184 18.1161 127.842 18.0039 127.6 17.7795C127.358 17.5492 127.237 17.2214 127.237 16.7963V12.1992H128.078V16.6723C128.078 16.8908 128.131 17.0591 128.237 17.1772C128.35 17.2894 128.509 17.3455 128.716 17.3455C128.775 17.3455 128.84 17.3336 128.911 17.31C128.981 17.2864 129.067 17.2392 129.167 17.1683L129.486 17.8238C129.333 17.9241 129.185 17.998 129.043 18.0452C128.908 18.0924 128.769 18.1161 128.627 18.1161ZM126.484 14.3073V13.581H129.336V14.3073H126.484ZM130.37 18.0098V13.581H131.212V18.0098H130.37ZM130.795 12.6421C130.66 12.6421 130.541 12.5919 130.441 12.4915C130.341 12.3853 130.291 12.2642 130.291 12.1284C130.291 11.9867 130.341 11.8686 130.441 11.7741C130.541 11.6737 130.66 11.6235 130.795 11.6235C130.937 11.6235 131.055 11.6737 131.15 11.7741C131.25 11.8686 131.3 11.9867 131.3 12.1284C131.3 12.2642 131.25 12.3853 131.15 12.4915C131.055 12.5919 130.937 12.6421 130.795 12.6421ZM132.445 18.0098V13.581H133.233L133.269 14.1922C133.41 13.956 133.588 13.7788 133.8 13.6607C134.013 13.5367 134.258 13.4747 134.535 13.4747C134.89 13.4747 135.191 13.5574 135.439 13.7227C135.687 13.8822 135.867 14.1272 135.979 14.4579C136.109 14.139 136.292 13.8969 136.528 13.7316C136.764 13.5603 137.045 13.4747 137.37 13.4747C137.872 13.4747 138.264 13.6401 138.548 13.9707C138.831 14.2955 138.97 14.7974 138.964 15.4765V18.0098H138.131V15.7422C138.131 15.3407 138.087 15.0366 137.999 14.8299C137.916 14.6173 137.804 14.4697 137.662 14.387C137.52 14.3044 137.355 14.2601 137.166 14.2542C136.835 14.2542 136.578 14.3811 136.395 14.6351C136.218 14.889 136.13 15.2462 136.13 15.7068V18.0098H135.288V15.7422C135.288 15.3407 135.247 15.0366 135.164 14.8299C135.082 14.6173 134.966 14.4697 134.819 14.387C134.677 14.3044 134.512 14.2601 134.323 14.2542C133.992 14.2542 133.735 14.3811 133.552 14.6351C133.375 14.889 133.286 15.2462 133.286 15.7068V18.0098H132.445ZM141.997 18.1161C141.566 18.1161 141.185 18.0186 140.854 17.8238C140.524 17.623 140.264 17.3484 140.075 17C139.886 16.6516 139.792 16.2501 139.792 15.7954C139.792 15.3407 139.886 14.9392 140.075 14.5908C140.264 14.2424 140.524 13.9707 140.854 13.7759C141.191 13.5751 141.575 13.4747 142.006 13.4747C142.413 13.4747 142.771 13.5781 143.078 13.7847C143.385 13.9855 143.624 14.2749 143.795 14.6528C143.972 15.0248 144.061 15.4647 144.061 15.9725H140.482L140.642 15.8397C140.642 16.1526 140.704 16.4243 140.828 16.6546C140.952 16.8849 141.12 17.062 141.333 17.186C141.545 17.3041 141.787 17.3632 142.059 17.3632C142.354 17.3632 142.599 17.2953 142.794 17.1594C142.995 17.0177 143.151 16.8406 143.264 16.628L143.99 16.9646C143.872 17.1949 143.718 17.3986 143.529 17.5757C143.34 17.747 143.116 17.8799 142.856 17.9743C142.602 18.0688 142.316 18.1161 141.997 18.1161ZM140.695 15.4411L140.527 15.3082H143.326L143.166 15.4411C143.166 15.1813 143.113 14.9598 143.007 14.7768C142.901 14.5878 142.759 14.4461 142.582 14.3516C142.405 14.2512 142.207 14.201 141.988 14.201C141.776 14.201 141.569 14.2512 141.368 14.3516C141.173 14.4461 141.011 14.5849 140.881 14.7679C140.757 14.951 140.695 15.1754 140.695 15.4411ZM146.478 18.1161C146.165 18.1161 145.884 18.0688 145.636 17.9743C145.394 17.8799 145.187 17.7529 145.016 17.5935C144.851 17.434 144.727 17.2539 144.644 17.0532L145.37 16.7343C145.465 16.9173 145.607 17.0679 145.796 17.186C145.985 17.3041 146.194 17.3632 146.425 17.3632C146.678 17.3632 146.888 17.3159 147.053 17.2214C147.219 17.127 147.301 16.9941 147.301 16.8229C147.301 16.6575 147.239 16.5276 147.115 16.4331C146.991 16.3387 146.811 16.2619 146.575 16.2028L146.159 16.0965C145.745 15.9844 145.424 15.8161 145.193 15.5917C144.969 15.3673 144.857 15.1134 144.857 14.8299C144.857 14.3989 144.996 14.0652 145.273 13.829C145.551 13.5928 145.961 13.4747 146.504 13.4747C146.77 13.4747 147.012 13.5131 147.231 13.5899C147.455 13.6666 147.644 13.7759 147.797 13.9176C147.957 14.0593 148.069 14.2276 148.134 14.4225L147.425 14.7413C147.355 14.5642 147.233 14.4343 147.062 14.3516C146.891 14.263 146.69 14.2188 146.46 14.2188C146.224 14.2188 146.038 14.2719 145.902 14.3782C145.766 14.4786 145.698 14.6203 145.698 14.8034C145.698 14.9037 145.754 15.0012 145.866 15.0956C145.985 15.1842 146.156 15.258 146.38 15.3171L146.859 15.4322C147.148 15.5031 147.387 15.6123 147.576 15.76C147.765 15.9017 147.907 16.0641 148.001 16.2471C148.096 16.4243 148.143 16.6103 148.143 16.8051C148.143 17.0709 148.069 17.3041 147.921 17.5049C147.78 17.6998 147.582 17.8503 147.328 17.9566C147.08 18.0629 146.797 18.1161 146.478 18.1161Z" fill="white"/>
<defs>
<clipPath id="clip0_3879_12641">
<rect width="12.4005" height="12.4005" fill="white" transform="translate(14.5498 7.60938)"/>
</clipPath>
</defs>
</svg>
