<svg width="220" height="42" viewBox="0 0 220 42" fill="none" xmlns="http://www.w3.org/2000/svg">
<path d="M29.2603 5.13937L29.1874 5.06652L29.0417 4.92083L28.9688 4.84799C25.8963 1.84877 21.6933 0 17.0557 0C12.4181 0 8.21759 1.84877 5.14259 4.8505L5.06973 4.92334L4.92402 5.06904L4.85117 5.14188C1.84902 8.21395 0 12.4164 0 17.0534C0 21.6903 1.87917 25.9581 4.92151 29.0377L17.0532 41.1677L29.1849 29.0377C32.2297 25.9581 34.1064 21.7255 34.1064 17.0534C34.1064 12.3812 32.2574 8.21646 29.2552 5.14188L29.2603 5.13937ZM17.0557 6.4958C22.8867 6.4958 27.6122 11.2207 27.6122 17.0508C27.6122 22.881 22.8867 27.6059 17.0557 27.6059C11.2248 27.6059 6.49921 22.881 6.49921 17.0508C6.49921 11.2207 11.2248 6.4958 17.0557 6.4958Z" fill="#1E3A8A"/>
<path d="M22.0399 12.8818C22.1353 13.1406 22.1881 13.4194 22.1881 13.7133C22.1881 15.0597 21.0978 16.1498 19.7512 16.1498C18.4046 16.1498 17.3143 15.0597 17.3143 13.7133C17.3143 12.3669 18.4046 11.2767 19.7512 11.2767C19.8642 11.2767 19.9773 11.2868 20.0853 11.3018C19.1809 10.8246 18.1484 10.5508 17.0555 10.5508C13.468 10.5508 10.5588 13.4596 10.5588 17.0466C10.5588 20.6336 13.468 23.5424 17.0555 23.5424C20.643 23.5424 23.5522 20.6336 23.5522 17.0466C23.5522 15.4616 22.9819 14.0072 22.0399 12.8793V12.8818Z" fill="url(#paint0_linear_3879_12571)"/>
<path d="M29.2603 5.13937L29.1874 5.06652L29.0417 4.92083L28.9688 4.84799C25.8963 1.84877 21.6933 0 17.0557 0C12.4181 0 8.21759 1.84877 5.14259 4.8505L5.06973 4.92334L4.92402 5.06904L4.85117 5.14188C1.84902 8.21395 0 12.4164 0 17.0534C0 21.6903 1.87917 25.9581 4.92151 29.0377L17.0532 41.1677L29.1849 29.0377C32.2297 25.9581 34.1064 21.7255 34.1064 17.0534C34.1064 12.3812 32.2574 8.21646 29.2552 5.14188L29.2603 5.13937ZM17.0557 6.4958C22.8867 6.4958 27.6122 11.2207 27.6122 17.0508C27.6122 22.881 22.8867 27.6059 17.0557 27.6059C11.2248 27.6059 6.49921 22.881 6.49921 17.0508C6.49921 11.2207 11.2248 6.4958 17.0557 6.4958Z" fill="url(#paint1_radial_3879_12571)" fill-opacity="0.3"/>
<path d="M46.8962 7.65172H54.2507C61.5119 7.65172 65.3184 11.8079 65.3184 18.0279C65.3184 24.2478 61.5119 28.404 54.2507 28.404H46.8962V7.64453V7.65172ZM54.2507 24.6649C59.0412 24.6649 61.1959 22.0619 61.1959 18.0279C61.1959 13.9939 59.0412 11.4268 54.2507 11.4268H50.9541V24.6649H54.2507Z" fill="#333333"/>
<path d="M67.9466 19.2986C67.9466 14.5671 70.7333 12.3164 74.8271 12.3164C78.9209 12.3164 81.6717 14.5671 81.6717 19.3633V19.4567H77.9298V19.2986C77.9298 16.7603 76.6586 15.8398 74.8199 15.8398C72.9813 15.8398 71.7101 16.7603 71.7101 19.2986V28.4092H67.9395V19.2986H67.9466Z" fill="#333333"/>
<path d="M83.6392 8.19065C83.6392 6.73095 84.6878 5.65234 86.1457 5.65234C87.6037 5.65234 88.6523 6.73095 88.6523 8.19065C88.6523 9.65036 87.6037 10.7002 86.1457 10.7002C84.6878 10.7002 83.6392 9.65036 83.6392 8.19065ZM84.2425 12.728H88.0131V28.4109H84.2425V12.728Z" fill="#333333"/>
<path d="M90.6412 12.7305H94.7638L99.109 24.9474L103.454 12.7305H107.483L101.335 28.4133H96.8035L90.6556 12.7305H90.6412Z" fill="#333333"/>
<path d="M108.201 20.5713C108.201 15.8111 111.692 12.3164 116.633 12.3164C121.575 12.3164 125 15.8111 125 20.5713V21.9016H112.159C112.669 24.1882 114.407 25.3963 116.626 25.3963C118.307 25.3963 119.542 24.9217 120.332 23.9078H124.361C123.191 26.8919 120.332 28.8262 116.626 28.8262C111.678 28.8262 108.194 25.3315 108.194 20.5713H108.201ZM121.014 18.8887C120.411 16.7962 118.702 15.7464 116.64 15.7464C114.579 15.7464 112.87 16.825 112.266 18.8887H121.014Z" fill="#333333"/>
<path d="M128.052 7.65234H137.978C141.906 7.65234 143.968 9.90303 143.968 13.0454C143.968 15.1378 142.984 16.7557 141.274 17.6186V17.6834C143.558 18.4168 144.923 20.3151 144.923 22.7959C144.923 26.0317 142.833 28.4119 138.804 28.4119H128.059V7.65234H128.052ZM137.468 16.0655C139.148 16.0655 139.938 15.0516 139.938 13.7501C139.938 12.4485 139.306 11.4347 137.432 11.4347H132.103V16.0726H137.461L137.468 16.0655ZM138.1 24.6655C140.003 24.6655 140.764 23.5581 140.764 22.1919C140.764 20.8257 139.816 19.6824 138.136 19.6824H132.11V24.6655H138.1Z" fill="#333333"/>
<path d="M147.293 20.8886V12.7344H151.063V20.8886C151.063 23.8727 152.65 25.3037 155.028 25.3037C157.405 25.3037 158.992 23.8727 158.992 20.8886V12.7344H162.763V20.8886C162.763 26.1234 159.653 28.8271 155.028 28.8271C150.402 28.8271 147.293 26.1594 147.293 20.8886Z" fill="#333333"/>
<path d="M165.233 20.4067C165.233 15.0425 169.226 12.31 173.033 12.31C175.281 12.31 177.155 13.2592 178.261 15.0065V5.86719H182.032V20.4355C182.032 25.5121 178.606 28.8127 173.694 28.8127C168.781 28.8127 165.226 25.3827 165.226 20.3996L165.233 20.4067ZM178.261 20.5721C178.261 17.8109 176.423 15.8407 173.665 15.8407C170.907 15.8407 169.04 17.8109 169.04 20.5721C169.04 23.3334 170.907 25.3036 173.665 25.3036C176.423 25.3036 178.261 23.3334 178.261 20.5721Z" fill="#333333"/>
<path d="M184.51 20.4067C184.51 15.0425 188.503 12.31 192.309 12.31C194.557 12.31 196.432 13.2592 197.538 15.0065V5.86719H201.309V20.4355C201.309 25.5121 197.883 28.8127 192.97 28.8127C188.058 28.8127 184.502 25.3827 184.502 20.3996L184.51 20.4067ZM197.538 20.5721C197.538 17.8109 195.699 15.8407 192.941 15.8407C190.184 15.8407 188.316 17.8109 188.316 20.5721C188.316 23.3334 190.184 25.3036 192.941 25.3036C195.699 25.3036 197.538 23.3334 197.538 20.5721Z" fill="#333333"/>
<path d="M204.54 30.1241H208.311C208.943 31.5838 210.178 32.2526 212.081 32.2526C214.653 32.2526 216.111 31.0158 216.111 27.9669V25.9967C215.163 27.708 213.511 28.6284 211.449 28.6284C207.837 28.6284 204.411 26.2771 204.411 20.6899V12.7227H208.182V20.6899C208.182 23.6741 209.769 25.105 212.146 25.105C214.523 25.105 216.111 23.6094 216.111 20.6899V12.7227H219.881V27.8662C219.881 33.324 216.427 35.5171 212.081 35.5171C208.433 35.5171 205.424 33.8345 204.533 30.1241H204.54Z" fill="#333333"/>
<defs>
<linearGradient id="paint0_linear_3879_12571" x1="12.4631" y1="21.6409" x2="21.6316" y2="12.4736" gradientUnits="userSpaceOnUse">
<stop stop-color="#02D4D4"/>
<stop offset="1" stop-color="#00FFFF"/>
</linearGradient>
<radialGradient id="paint1_radial_3879_12571" cx="0" cy="0" r="1" gradientUnits="userSpaceOnUse" gradientTransform="translate(17.0557 20.5826) scale(18.9022 18.8996)">
<stop offset="0.29"/>
<stop offset="0.69" stop-opacity="0"/>
</radialGradient>
</defs>
</svg>
