<?xml version="1.0" encoding="UTF-8"?>
<svg xmlns="http://www.w3.org/2000/svg" version="1.1" xmlns:xlink="http://www.w3.org/1999/xlink" viewBox="0 0 61 61">
  <defs>
    <style>
      .cls-1, .cls-2, .cls-3 {
        fill: none;
      }

      .cls-2 {
        stroke: url(#linear-gradient);
      }

      .cls-2, .cls-3 {
        stroke-linecap: round;
        stroke-linejoin: round;
        stroke-width: 4px;
      }

      .cls-3 {
        stroke: url(#linear-gradient-2);
      }

      .cls-4 {
        clip-path: url(#clippath);
      }
    </style>
    <clipPath id="clippath">
      <rect class="cls-1" x=".5" y=".5" width="60" height="60"/>
    </clipPath>
    <linearGradient id="linear-gradient" x1="58.4" y1="31.5" x2="2.6" y2="31.5" gradientTransform="translate(0 62) scale(1 -1)" gradientUnits="userSpaceOnUse">
      <stop offset=".4" stop-color="#2a47ab"/>
      <stop offset="1" stop-color="#1e368a"/>
    </linearGradient>
    <linearGradient id="linear-gradient-2" x1="50.6" y1="7.9" x2="7.1" y2="17.9" gradientTransform="translate(0 62) scale(1 -1)" gradientUnits="userSpaceOnUse">
      <stop offset=".4" stop-color="#2a47ab"/>
      <stop offset="1" stop-color="#1e368a"/>
    </linearGradient>
  </defs>
  <!-- Generator: Adobe Illustrator 28.7.5, SVG Export Plug-In . SVG Version: 1.2.0 Build 176)  -->
  <g>
    <g id="Layer_1">
      <g class="cls-4">
        <g>
          <path class="cls-2" d="M2.8,39.2c-.2-.8-.2-1.6,0-2.4.2-.8.7-1.5,1.2-2.1l9.3-9.3-5.2-10,14.9.4,11.7-11.7c.6-.6,1.2-1,2-1.2s1.5-.3,2.3-.1c.8.2,1.6.5,2.3,1.1.6.6,1.1,1.3,1.4,2.1l15.3,45.9c.3.9.4,1.8.2,2.7-.2.9-.6,1.7-1.3,2.4-.6.6-1.5,1.1-2.4,1.3-.9.2-1.8.1-2.7-.2l-28.9-10M57.1,56.7L23,15.8"/>
          <path class="cls-3" d="M7.5,40l11,11M18.5,40l-11,11"/>
        </g>
      </g>
    </g>
  </g>
</svg>