<?xml version="1.0" encoding="UTF-8"?>
<svg xmlns="http://www.w3.org/2000/svg" version="1.1" xmlns:xlink="http://www.w3.org/1999/xlink" viewBox="0 0 61 61">
  <defs>
    <style>
      .cls-1, .cls-2 {
        fill: none;
      }

      .cls-2 {
        stroke: url(#linear-gradient);
        stroke-linecap: round;
        stroke-linejoin: round;
        stroke-width: 4px;
      }

      .cls-3 {
        clip-path: url(#clippath);
      }
    </style>
    <clipPath id="clippath">
      <rect class="cls-1" x=".5" y=".5" width="60" height="60"/>
    </clipPath>
    <linearGradient id="linear-gradient" x1="30.5" y1="59.4" x2="30.5" y2="3.6" gradientTransform="translate(0 62) scale(1 -1)" gradientUnits="userSpaceOnUse">
      <stop offset=".4" stop-color="#27428f"/>
      <stop offset="1" stop-color="#1e3a8a"/>
    </linearGradient>
  </defs>
  <!-- Generator: Adobe Illustrator 28.7.5, SVG Export Plug-In . SVG Version: 1.2.0 Build 176)  -->
  <g>
    <g id="Layer_1">
      <g class="cls-3">
        <path class="cls-2" d="M56.7,3.9L15.8,38M25.4,47.6l9.3,9.3c.6.6,1.3,1,2.1,1.2.8.2,1.6.2,2.4,0,.8-.2,1.5-.6,2.1-1.1.6-.6,1.1-1.3,1.3-2l15.3-45.9c.3-.9.4-1.8.2-2.7-.2-.9-.6-1.7-1.3-2.4-.6-.6-1.5-1.1-2.4-1.3-.9-.2-1.8-.1-2.7.2L5.9,18.3c-.8.3-1.5.8-2.1,1.4-.6.6-.9,1.4-1.1,2.3-.2.8-.1,1.6.1,2.3.2.7.6,1.4,1.2,2l11.7,11.7-.4,14.9,10-5.2Z"/>
      </g>
    </g>
  </g>
</svg>