<svg width="95" height="96" viewBox="0 0 95 96" fill="none" xmlns="http://www.w3.org/2000/svg">
<g filter="url(#filter0_dd_3879_12907)">
<rect x="10.4924" y="9.49219" width="74.0149" height="74.0149" rx="7.79104" fill="white"/>
<path d="M23.5955 75.716C22.1347 75.716 20.8846 75.1963 19.8452 74.1569C18.8058 73.1175 18.2852 71.8665 18.2834 70.4039V65.0919C18.2834 64.3393 18.5384 63.709 19.0484 63.2008C19.5583 62.6926 20.1887 62.4376 20.9395 62.4358C21.6903 62.4341 22.3215 62.689 22.8332 63.2008C23.345 63.7125 23.5991 64.3429 23.5955 65.0919V70.4039H28.9076C29.6601 70.4039 30.2914 70.6589 30.8013 71.1689C31.3113 71.6788 31.5654 72.3092 31.5636 73.06C31.5619 73.8107 31.3069 74.442 30.7987 74.9537C30.2905 75.4655 29.6601 75.7195 28.9076 75.716H23.5955ZM71.4042 75.716H66.0921C65.3396 75.716 64.7092 75.461 64.201 74.9511C63.6928 74.4411 63.4378 73.8107 63.4361 73.06C63.4343 72.3092 63.6893 71.6788 64.201 71.1689C64.7127 70.6589 65.3431 70.4039 66.0921 70.4039H71.4042V65.0919C71.4042 64.3393 71.6592 63.709 72.1691 63.2008C72.6791 62.6926 73.3094 62.4376 74.0602 62.4358C74.811 62.4341 75.4422 62.689 75.954 63.2008C76.4657 63.7125 76.7198 64.3429 76.7162 65.0919V70.4039C76.7162 71.8647 76.1965 73.1157 75.1572 74.1569C74.1178 75.1981 72.8668 75.7178 71.4042 75.716ZM47.4998 63.7638C42.8075 63.7638 38.4693 62.5244 34.4853 60.0454C30.5012 57.5664 27.3804 54.18 25.1227 49.886C24.8571 49.3548 24.6579 48.813 24.5251 48.2606C24.3923 47.7081 24.3259 47.1432 24.3259 46.566C24.3259 45.9463 24.3923 45.3487 24.5251 44.7732C24.6579 44.1977 24.8571 43.6444 25.1227 43.1132C27.3804 38.8192 30.5012 35.4328 34.4853 32.9538C38.4693 30.4749 42.8075 29.2354 47.4998 29.2354C52.1922 29.2354 56.5304 30.4749 60.5144 32.9538C64.4985 35.4328 67.6193 38.8192 69.877 43.1132C70.1426 43.6444 70.3418 44.1871 70.4746 44.7413C70.6074 45.2955 70.6738 45.8816 70.6738 46.4996C70.6738 47.1176 70.6074 47.7046 70.4746 48.2606C70.3418 48.8166 70.1426 49.3584 69.877 49.886C67.6193 54.18 64.4985 57.5664 60.5144 60.0454C56.5304 62.5244 52.1922 63.7638 47.4998 63.7638ZM47.4998 55.7957C50.0673 55.7957 52.2586 54.8883 54.0735 53.0733C55.8885 51.2583 56.796 49.0671 56.796 46.4996C56.796 43.9321 55.8885 41.7409 54.0735 39.9259C52.2586 38.111 50.0673 37.2035 47.4998 37.2035C44.9323 37.2035 42.7411 38.111 40.9262 39.9259C39.1112 41.7409 38.2037 43.9321 38.2037 46.4996C38.2037 49.0671 39.1112 51.2583 40.9262 53.0733C42.7411 54.8883 44.9323 55.7957 47.4998 55.7957ZM47.4998 50.4837C46.3932 50.4837 45.452 50.0968 44.6765 49.323C43.9009 48.5492 43.514 47.6081 43.5158 46.4996C43.5176 45.3912 43.9053 44.4509 44.6791 43.6789C45.4529 42.9069 46.3932 42.5191 47.4998 42.5155C48.6065 42.512 49.5477 42.8998 50.3232 43.6789C51.0988 44.458 51.4857 45.3982 51.4839 46.4996C51.4821 47.601 51.0952 48.5421 50.3232 49.323C49.5512 50.1038 48.6101 50.4907 47.4998 50.4837ZM76.7162 22.5953V27.9073C76.7162 28.6599 76.4613 29.2911 75.9513 29.8011C75.4413 30.3111 74.811 30.5652 74.0602 30.5634C73.3094 30.5616 72.6791 30.3066 72.1691 29.7984C71.6592 29.2903 71.4042 28.6599 71.4042 27.9073V22.5953H66.0921C65.3396 22.5953 64.7092 22.3403 64.201 21.8303C63.6928 21.3204 63.4378 20.69 63.4361 19.9392C63.4343 19.1885 63.6893 18.5581 64.201 18.0481C64.7127 17.5382 65.3431 17.2832 66.0921 17.2832H71.4042C72.865 17.2832 74.116 17.8038 75.1572 18.845C76.1983 19.8861 76.718 21.1362 76.7162 22.5953ZM23.5955 17.2832H28.9076C29.6601 17.2832 30.2914 17.5382 30.8013 18.0481C31.3113 18.5581 31.5654 19.1885 31.5636 19.9392C31.5619 20.69 31.3069 21.3213 30.7987 21.833C30.2905 22.3447 29.6601 22.5988 28.9076 22.5953H23.5955V27.9073C23.5955 28.6599 23.3405 29.2911 22.8306 29.8011C22.3206 30.3111 21.6903 30.5652 20.9395 30.5634C20.1887 30.5616 19.5583 30.3066 19.0484 29.7984C18.5384 29.2903 18.2834 28.6599 18.2834 27.9073V22.5953C18.2834 21.1345 18.804 19.8843 19.8452 18.845C20.8864 17.8056 22.1365 17.285 23.5955 17.2832Z" fill="#1E3A8A"/>
</g>
<defs>
<filter id="filter0_dd_3879_12907" x="0.104372" y="0.402635" width="94.791" height="94.7917" filterUnits="userSpaceOnUse" color-interpolation-filters="sRGB">
<feFlood flood-opacity="0" result="BackgroundImageFix"/>
<feColorMatrix in="SourceAlpha" type="matrix" values="0 0 0 0 0 0 0 0 0 0 0 0 0 0 0 0 0 0 127 0" result="hardAlpha"/>
<feOffset dy="1.29851"/>
<feGaussianBlur stdDeviation="5.19403"/>
<feComposite in2="hardAlpha" operator="out"/>
<feColorMatrix type="matrix" values="0 0 0 0 0 0 0 0 0 0 0 0 0 0 0 0 0 0 0.1 0"/>
<feBlend mode="normal" in2="BackgroundImageFix" result="effect1_dropShadow_3879_12907"/>
<feColorMatrix in="SourceAlpha" type="matrix" values="0 0 0 0 0 0 0 0 0 0 0 0 0 0 0 0 0 0 127 0" result="hardAlpha"/>
<feOffset dy="0.649254"/>
<feGaussianBlur stdDeviation="1.29851"/>
<feComposite in2="hardAlpha" operator="out"/>
<feColorMatrix type="matrix" values="0 0 0 0 0 0 0 0 0 0 0 0 0 0 0 0 0 0 0.1 0"/>
<feBlend mode="normal" in2="effect1_dropShadow_3879_12907" result="effect2_dropShadow_3879_12907"/>
<feBlend mode="normal" in="SourceGraphic" in2="effect2_dropShadow_3879_12907" result="shape"/>
</filter>
</defs>
</svg>
