<svg width="92" height="91" viewBox="0 0 92 91" fill="none" xmlns="http://www.w3.org/2000/svg">
<g filter="url(#filter0_dd_3879_12898)">
<rect x="12" y="10" width="68" height="68" rx="8.41237" fill="white"/>
<path fill-rule="evenodd" clip-rule="evenodd" d="M72.2592 69.65L19.7405 69.6529C19.2431 69.6529 18.7546 69.5219 18.3238 69.2733C17.8931 69.0246 17.5355 68.6669 17.2868 68.2362C17.0381 67.8055 16.9072 67.3169 16.9072 66.8195C16.9072 66.3222 17.0381 65.8336 17.2868 65.4029L43.5405 19.9165C43.7892 19.4859 44.1468 19.1282 44.5776 18.8796C45.0083 18.6309 45.4968 18.5 45.9942 18.5C46.4915 18.5 46.9801 18.6309 47.4108 18.8796C47.8415 19.1282 48.1991 19.4859 48.4478 19.9165L74.7128 65.4C74.9615 65.8308 75.0924 66.3193 75.0924 66.8167C75.0924 67.314 74.9615 67.8026 74.7128 68.2333C74.4642 68.6641 74.1065 69.0217 73.6758 69.2704C73.2451 69.5191 72.7565 69.65 72.2592 69.65ZM43.8692 37.044L44.1978 53.0977H47.8018L48.1333 37.044H43.8692ZM45.9942 61.3314C47.3542 61.3314 48.4167 60.2859 48.4167 58.974C48.4167 57.6622 47.3542 56.6337 45.9913 56.6337C45.6787 56.6262 45.3677 56.6811 45.0766 56.7951C44.7855 56.9092 44.52 57.0803 44.2957 57.2982C44.0715 57.5161 43.8929 57.7766 43.7706 58.0643C43.6482 58.3521 43.5844 58.6613 43.583 58.974C43.583 60.2859 44.6455 61.3314 45.9913 61.3314H45.9942Z" fill="#FF4B4B"/>
</g>
<defs>
<filter id="filter0_dd_3879_12898" x="0.783505" y="0.185567" width="90.433" height="90.433" filterUnits="userSpaceOnUse" color-interpolation-filters="sRGB">
<feFlood flood-opacity="0" result="BackgroundImageFix"/>
<feColorMatrix in="SourceAlpha" type="matrix" values="0 0 0 0 0 0 0 0 0 0 0 0 0 0 0 0 0 0 127 0" result="hardAlpha"/>
<feOffset dy="1.40206"/>
<feGaussianBlur stdDeviation="5.60825"/>
<feComposite in2="hardAlpha" operator="out"/>
<feColorMatrix type="matrix" values="0 0 0 0 0 0 0 0 0 0 0 0 0 0 0 0 0 0 0.1 0"/>
<feBlend mode="normal" in2="BackgroundImageFix" result="effect1_dropShadow_3879_12898"/>
<feColorMatrix in="SourceAlpha" type="matrix" values="0 0 0 0 0 0 0 0 0 0 0 0 0 0 0 0 0 0 127 0" result="hardAlpha"/>
<feOffset dy="0.701031"/>
<feGaussianBlur stdDeviation="1.40206"/>
<feComposite in2="hardAlpha" operator="out"/>
<feColorMatrix type="matrix" values="0 0 0 0 0 0 0 0 0 0 0 0 0 0 0 0 0 0 0.1 0"/>
<feBlend mode="normal" in2="effect1_dropShadow_3879_12898" result="effect2_dropShadow_3879_12898"/>
<feBlend mode="normal" in="SourceGraphic" in2="effect2_dropShadow_3879_12898" result="shape"/>
</filter>
</defs>
</svg>
