<svg width="94" height="40" viewBox="0 0 94 40" fill="none" xmlns="http://www.w3.org/2000/svg">
<g filter="url(#filter0_d_3879_12672)">
<rect x="7.375" y="4.92773" width="78.6793" height="25.1774" rx="12.5887" fill="url(#paint0_linear_3879_12672)" shape-rendering="crispEdges"/>
<path d="M22.063 15.6801L23.0465 12.7296H30.2588L31.2423 15.6801M30.2588 18.9584C29.998 18.9584 29.7478 18.8547 29.5634 18.6703C29.3789 18.4859 29.2753 18.2357 29.2753 17.9749C29.2753 17.714 29.3789 17.4639 29.5634 17.2794C29.7478 17.095 29.998 16.9914 30.2588 16.9914C30.5196 16.9914 30.7698 17.095 30.9542 17.2794C31.1387 17.4639 31.2423 17.714 31.2423 17.9749C31.2423 18.2357 31.1387 18.4859 30.9542 18.6703C30.7698 18.8547 30.5196 18.9584 30.2588 18.9584ZM23.0465 18.9584C22.7857 18.9584 22.5355 18.8547 22.3511 18.6703C22.1666 18.4859 22.063 18.2357 22.063 17.9749C22.063 17.714 22.1666 17.4639 22.3511 17.2794C22.5355 17.095 22.7857 16.9914 23.0465 16.9914C23.3074 16.9914 23.5575 17.095 23.742 17.2794C23.9264 17.4639 24.03 17.714 24.03 17.9749C24.03 18.2357 23.9264 18.4859 23.742 18.6703C23.5575 18.8547 23.3074 18.9584 23.0465 18.9584ZM31.1898 12.4018C31.0587 12.0215 30.6915 11.7461 30.2588 11.7461H23.0465C22.6138 11.7461 22.2466 12.0215 22.1155 12.4018L20.7517 16.3357V21.581C20.7517 21.7549 20.8208 21.9217 20.9437 22.0446C21.0667 22.1676 21.2335 22.2367 21.4074 22.2367H22.063C22.2369 22.2367 22.4037 22.1676 22.5267 22.0446C22.6496 21.9217 22.7187 21.7549 22.7187 21.581V20.9253H30.5866V21.581C30.5866 21.7549 30.6557 21.9217 30.7787 22.0446C30.9016 22.1676 31.0684 22.2367 31.2423 22.2367H31.8979C32.0718 22.2367 32.2386 22.1676 32.3616 22.0446C32.4845 21.9217 32.5536 21.7549 32.5536 21.581V16.3357L31.1898 12.4018Z" fill="white"/>
<path d="M40.1933 19.6006C39.9289 19.6006 39.6881 19.5699 39.471 19.5085C39.2586 19.4472 39.0721 19.3646 38.9116 19.2607C38.7558 19.1521 38.626 19.0317 38.5221 18.8996C38.4183 18.7674 38.3451 18.6281 38.3026 18.4818L38.9753 18.2623C39.0461 18.4558 39.1807 18.6234 39.3789 18.765C39.5772 18.9066 39.8203 18.9798 40.1083 18.9845C40.4576 18.9845 40.7314 18.9161 40.9297 18.7792C41.1327 18.6376 41.2342 18.4511 41.2342 18.2198C41.2342 18.0073 41.1469 17.835 40.9722 17.7029C40.7975 17.566 40.5662 17.4621 40.2782 17.3913L39.7047 17.2426C39.4781 17.1812 39.2704 17.0939 39.0815 16.9806C38.8974 16.8673 38.7511 16.7233 38.6425 16.5486C38.5339 16.374 38.4796 16.1639 38.4796 15.9184C38.4796 15.4652 38.626 15.1112 38.9187 14.8562C39.2161 14.6013 39.6433 14.4739 40.2003 14.4739C40.5214 14.4739 40.7999 14.5258 41.0359 14.6296C41.272 14.7288 41.4655 14.861 41.6166 15.0262C41.7724 15.1914 41.8833 15.3732 41.9494 15.5714L41.2767 15.798C41.1964 15.5856 41.0595 15.4156 40.866 15.2882C40.6724 15.156 40.434 15.0899 40.1508 15.0899C39.8534 15.0899 39.6173 15.1607 39.4427 15.3023C39.2727 15.444 39.1877 15.6375 39.1877 15.883C39.1877 16.0907 39.2538 16.2512 39.386 16.3645C39.5229 16.4731 39.7047 16.5557 39.9313 16.6124L40.5048 16.754C40.9675 16.8673 41.3239 17.0561 41.5741 17.3205C41.829 17.5801 41.9565 17.8657 41.9565 18.1773C41.9565 18.4464 41.888 18.6895 41.7511 18.9066C41.6189 19.1191 41.4207 19.289 41.1563 19.4165C40.8967 19.5392 40.5756 19.6006 40.1933 19.6006ZM44.1325 19.6006C43.7785 19.6006 43.5047 19.5109 43.3111 19.3315C43.1176 19.1474 43.0208 18.8854 43.0208 18.5455V14.8704H43.6935V18.4464C43.6935 18.621 43.736 18.7556 43.821 18.85C43.9107 18.9397 44.0381 18.9845 44.2033 18.9845C44.2506 18.9845 44.3025 18.9751 44.3591 18.9562C44.4158 18.9373 44.4842 18.8996 44.5645 18.8429L44.8194 19.3669C44.6967 19.4472 44.5786 19.5062 44.4653 19.5439C44.3568 19.5817 44.2458 19.6006 44.1325 19.6006ZM42.4189 16.5557V15.9751H44.699V16.5557H42.4189ZM47.6298 19.5156L47.6015 18.8996V17.6674C47.6015 17.4078 47.5708 17.1907 47.5094 17.016C47.4528 16.8413 47.3631 16.7091 47.2403 16.6194C47.1223 16.5297 46.9642 16.4849 46.7659 16.4849C46.5818 16.4849 46.4213 16.5227 46.2844 16.5982C46.1522 16.6737 46.0412 16.7917 45.9516 16.9523L45.3567 16.7257C45.4417 16.5652 45.5479 16.4235 45.6754 16.3008C45.8029 16.1733 45.9563 16.0742 46.1357 16.0034C46.3151 15.9278 46.5251 15.8901 46.7659 15.8901C47.1011 15.8901 47.3796 15.9562 47.6015 16.0884C47.8233 16.2205 47.9886 16.4117 48.0971 16.6619C48.2104 16.9121 48.2647 17.2213 48.26 17.5896L48.2529 19.5156H47.6298ZM46.5889 19.6006C46.1687 19.6006 45.8406 19.5062 45.6046 19.3174C45.3733 19.1238 45.2576 18.8571 45.2576 18.5172C45.2576 18.1537 45.378 17.8775 45.6187 17.6887C45.8642 17.4951 46.2041 17.3984 46.6384 17.3984H47.6227V17.9294H46.8225C46.4968 17.9294 46.2678 17.9814 46.1357 18.0852C46.0035 18.1844 45.9374 18.3236 45.9374 18.503C45.9374 18.6682 45.9988 18.7981 46.1215 18.8925C46.249 18.9822 46.4236 19.027 46.6455 19.027C46.8391 19.027 47.0066 18.9869 47.1483 18.9066C47.2899 18.8217 47.4008 18.7037 47.4811 18.5526C47.5613 18.4015 47.6015 18.2292 47.6015 18.0357H47.8351C47.8351 18.5172 47.7313 18.8996 47.5236 19.1828C47.3206 19.4613 47.009 19.6006 46.5889 19.6006ZM49.5178 17.6108C49.5178 17.2284 49.591 16.9168 49.7373 16.6761C49.8837 16.4353 50.0725 16.2559 50.3038 16.1379C50.5351 16.0199 50.7782 15.9609 51.0332 15.9609V16.5982C50.8207 16.5982 50.6177 16.6312 50.4242 16.6973C50.2353 16.7587 50.0796 16.8626 49.9568 17.0089C49.8388 17.1505 49.7798 17.3441 49.7798 17.5896L49.5178 17.6108ZM49.1071 19.5156V15.9751H49.7798V19.5156H49.1071ZM52.9425 19.6006C52.5884 19.6006 52.3146 19.5109 52.1211 19.3315C51.9275 19.1474 51.8307 18.8854 51.8307 18.5455V14.8704H52.5034V18.4464C52.5034 18.621 52.5459 18.7556 52.6309 18.85C52.7206 18.9397 52.848 18.9845 53.0133 18.9845C53.0605 18.9845 53.1124 18.9751 53.1691 18.9562C53.2257 18.9373 53.2942 18.8996 53.3744 18.8429L53.6293 19.3669C53.5066 19.4472 53.3886 19.5062 53.2753 19.5439C53.1667 19.5817 53.0558 19.6006 52.9425 19.6006ZM51.2288 16.5557V15.9751H53.509V16.5557H51.2288ZM58.614 19.5156L58.5856 18.8571V14.5588H59.2513V19.5156H58.614ZM57.4243 19.6006C57.1033 19.6006 56.8224 19.5227 56.5817 19.3669C56.3456 19.2111 56.1592 18.994 56.0223 18.7155C55.8901 18.4369 55.824 18.1136 55.824 17.7453C55.824 17.3724 55.8901 17.049 56.0223 16.7752C56.1592 16.4967 56.3456 16.2795 56.5817 16.1238C56.8224 15.968 57.1033 15.8901 57.4243 15.8901C57.7217 15.8901 57.979 15.968 58.1962 16.1238C58.418 16.2795 58.588 16.4967 58.706 16.7752C58.824 17.049 58.883 17.3724 58.883 17.7453C58.883 18.1136 58.824 18.4369 58.706 18.7155C58.588 18.994 58.418 19.2111 58.1962 19.3669C57.979 19.5227 57.7217 19.6006 57.4243 19.6006ZM57.5801 18.9916C57.7784 18.9916 57.9531 18.9397 58.1041 18.8358C58.2552 18.7273 58.3732 18.5809 58.4582 18.3968C58.5431 18.208 58.5856 17.9908 58.5856 17.7453C58.5856 17.4999 58.5431 17.2851 58.4582 17.101C58.3732 16.9121 58.2552 16.7658 58.1041 16.6619C57.9531 16.5533 57.776 16.4991 57.573 16.4991C57.3653 16.4991 57.1812 16.5533 57.0207 16.6619C56.8602 16.7658 56.7351 16.9121 56.6454 17.101C56.5557 17.2851 56.5109 17.4999 56.5109 17.7453C56.5109 17.9908 56.5557 18.208 56.6454 18.3968C56.7398 18.5809 56.8673 18.7273 57.0278 18.8358C57.1883 18.9397 57.3724 18.9916 57.5801 18.9916ZM60.5959 17.6108C60.5959 17.2284 60.6691 16.9168 60.8154 16.6761C60.9618 16.4353 61.1506 16.2559 61.3819 16.1379C61.6132 16.0199 61.8563 15.9609 62.1113 15.9609V16.5982C61.8988 16.5982 61.6958 16.6312 61.5023 16.6973C61.3135 16.7587 61.1577 16.8626 61.0349 17.0089C60.9169 17.1505 60.8579 17.3441 60.8579 17.5896L60.5959 17.6108ZM60.1852 19.5156V15.9751H60.8579V19.5156H60.1852ZM62.6964 19.5156V15.9751H63.3691V19.5156H62.6964ZM63.0363 15.2245C62.9277 15.2245 62.8333 15.1843 62.753 15.1041C62.6728 15.0191 62.6327 14.9223 62.6327 14.8137C62.6327 14.7005 62.6728 14.606 62.753 14.5305C62.8333 14.4503 62.9277 14.4101 63.0363 14.4101C63.1496 14.4101 63.244 14.4503 63.3195 14.5305C63.3998 14.606 63.4399 14.7005 63.4399 14.8137C63.4399 14.9223 63.3998 15.0191 63.3195 15.1041C63.244 15.1843 63.1496 15.2245 63.0363 15.2245ZM65.4668 19.5156L66.883 15.9751H67.584L66.1041 19.5156H65.4668ZM65.4243 19.5156L63.9514 15.9751H64.6383L66.0545 19.5156H65.4243ZM68.1525 19.5156V15.9751H68.8252V19.5156H68.1525ZM68.4924 15.2245C68.3838 15.2245 68.2894 15.1843 68.2091 15.1041C68.1289 15.0191 68.0887 14.9223 68.0887 14.8137C68.0887 14.7005 68.1289 14.606 68.2091 14.5305C68.2894 14.4503 68.3838 14.4101 68.4924 14.4101C68.6057 14.4101 68.7001 14.4503 68.7756 14.5305C68.8559 14.606 68.896 14.7005 68.896 14.8137C68.896 14.9223 68.8559 15.0191 68.7756 15.1041C68.7001 15.1843 68.6057 15.2245 68.4924 15.2245ZM69.8111 19.5156V15.9751H70.4413L70.4838 16.6265V19.5156H69.8111ZM72.2612 19.5156V17.7029H72.9339V19.5156H72.2612ZM72.2612 17.7029C72.2612 17.3818 72.2234 17.1387 72.1479 16.9735C72.0771 16.8035 71.9756 16.6855 71.8434 16.6194C71.7159 16.5533 71.5672 16.5179 71.3973 16.5132C71.1093 16.5132 70.8851 16.6147 70.7246 16.8177C70.5641 17.0207 70.4838 17.3063 70.4838 17.6745H70.1935C70.1935 17.3016 70.2478 16.9829 70.3564 16.7186C70.4697 16.4495 70.6278 16.2441 70.8308 16.1025C71.0385 15.9609 71.284 15.8901 71.5672 15.8901C71.8458 15.8901 72.0865 15.9467 72.2895 16.06C72.4972 16.1733 72.6554 16.3504 72.764 16.5911C72.8773 16.8272 72.9339 17.1387 72.9339 17.5258V17.7029H72.2612ZM75.2462 21.0239C75.0102 21.0239 74.7954 21.0003 74.6018 20.9531C74.4083 20.9106 74.2454 20.861 74.1132 20.8044C73.9811 20.7477 73.8819 20.6982 73.8158 20.6557L74.0708 20.1104C74.1321 20.1482 74.2195 20.1907 74.3328 20.2379C74.4461 20.2898 74.5782 20.3323 74.7293 20.3654C74.8804 20.4031 75.048 20.422 75.2321 20.422C75.4492 20.422 75.6428 20.3772 75.8127 20.2875C75.9827 20.2025 76.1148 20.068 76.2093 19.8838C76.3084 19.6997 76.358 19.4637 76.358 19.1757V15.9751H77.0307V19.1616C77.0307 19.5676 76.9528 19.9074 76.797 20.1813C76.6459 20.4598 76.4359 20.6699 76.1668 20.8115C75.9024 20.9531 75.5956 21.0239 75.2462 21.0239ZM75.1825 19.4661C74.8615 19.4661 74.5806 19.3929 74.3398 19.2465C74.1038 19.0955 73.9173 18.8878 73.7804 18.6234C73.6482 18.3543 73.5822 18.0451 73.5822 17.6958C73.5822 17.3323 73.6482 17.016 73.7804 16.7469C73.9173 16.4778 74.1038 16.2677 74.3398 16.1167C74.5806 15.9656 74.8615 15.8901 75.1825 15.8901C75.4752 15.8901 75.7301 15.9656 75.9473 16.1167C76.1691 16.2677 76.3391 16.4802 76.4571 16.754C76.5798 17.0231 76.6412 17.3394 76.6412 17.7029C76.6412 18.0522 76.5798 18.3614 76.4571 18.6305C76.3391 18.8948 76.1691 19.1002 75.9473 19.2465C75.7301 19.3929 75.4752 19.4661 75.1825 19.4661ZM75.3524 18.8996C75.5507 18.8996 75.723 18.8476 75.8694 18.7438C76.0157 18.6352 76.1314 18.4912 76.2163 18.3118C76.3013 18.1277 76.3438 17.9176 76.3438 17.6816C76.3438 17.4456 76.3013 17.2379 76.2163 17.0585C76.1314 16.8791 76.0133 16.7398 75.8623 16.6407C75.7159 16.5368 75.5436 16.4849 75.3454 16.4849C75.1376 16.4849 74.9535 16.5368 74.793 16.6407C74.6372 16.7398 74.5145 16.8791 74.4248 17.0585C74.3351 17.2379 74.2903 17.4456 74.2903 17.6816C74.2903 17.9176 74.3351 18.1277 74.4248 18.3118C74.5192 18.4912 74.6443 18.6352 74.8001 18.7438C74.9606 18.8476 75.1447 18.8996 75.3524 18.8996Z" fill="white"/>
</g>
<defs>
<filter id="filter0_d_3879_12672" x="0.293862" y="0.206975" width="92.8415" height="39.34" filterUnits="userSpaceOnUse" color-interpolation-filters="sRGB">
<feFlood flood-opacity="0" result="BackgroundImageFix"/>
<feColorMatrix in="SourceAlpha" type="matrix" values="0 0 0 0 0 0 0 0 0 0 0 0 0 0 0 0 0 0 127 0" result="hardAlpha"/>
<feMorphology radius="2.36038" operator="dilate" in="SourceAlpha" result="effect1_dropShadow_3879_12672"/>
<feOffset dy="2.36038"/>
<feGaussianBlur stdDeviation="2.36038"/>
<feComposite in2="hardAlpha" operator="out"/>
<feColorMatrix type="matrix" values="0 0 0 0 0 0 0 0 0 0 0 0 0 0 0 0 0 0 0.12 0"/>
<feBlend mode="normal" in2="BackgroundImageFix" result="effect1_dropShadow_3879_12672"/>
<feBlend mode="normal" in="SourceGraphic" in2="effect1_dropShadow_3879_12672" result="shape"/>
</filter>
<linearGradient id="paint0_linear_3879_12672" x1="84.0873" y1="6.1866" x2="64.922" y2="56.5896" gradientUnits="userSpaceOnUse">
<stop stop-color="#1E3A8A"/>
<stop offset="0.67978" stop-color="#0DA7CB"/>
<stop offset="1" stop-color="#00FFFF"/>
</linearGradient>
</defs>
</svg>
