<svg width="117" height="51" viewBox="0 0 117 51" fill="none" xmlns="http://www.w3.org/2000/svg">
<rect x="0.190918" width="116.478" height="50.6372" rx="10.3186" fill="#1E3A8A"/>
<path d="M9.58994 14.7383V10.3187H8.00797V9.77246H11.7678V10.3187H10.1858V14.7383H9.58994ZM13.472 14.8234C13.1268 14.8234 12.8194 14.7454 12.5498 14.5893C12.285 14.4285 12.0769 14.2086 11.9255 13.9296C11.7742 13.6505 11.6985 13.3289 11.6985 12.9648C11.6985 12.6006 11.7718 12.279 11.9184 12C12.0698 11.721 12.2779 11.5034 12.5427 11.3473C12.8123 11.1865 13.1173 11.1061 13.4578 11.1061C13.8078 11.1061 14.1152 11.1865 14.3801 11.3473C14.6496 11.5034 14.8577 11.721 15.0043 12C15.1557 12.279 15.2314 12.6006 15.2314 12.9648C15.2314 13.3289 15.1557 13.6505 15.0043 13.9296C14.8577 14.2086 14.652 14.4285 14.3872 14.5893C14.1223 14.7454 13.8173 14.8234 13.472 14.8234ZM13.472 14.2985C13.7085 14.2985 13.9142 14.2417 14.0892 14.1282C14.2642 14.0147 14.4014 13.8586 14.5007 13.66C14.6047 13.4614 14.6567 13.2296 14.6567 12.9648C14.6567 12.6999 14.6047 12.4682 14.5007 12.2696C14.4014 12.0709 14.2618 11.9149 14.0821 11.8013C13.9024 11.6878 13.6943 11.6311 13.4578 11.6311C13.2261 11.6311 13.0204 11.6878 12.8407 11.8013C12.6657 11.9149 12.5262 12.0709 12.4221 12.2696C12.3228 12.4682 12.2731 12.6999 12.2731 12.9648C12.2731 13.2249 12.3228 13.4566 12.4221 13.66C12.5262 13.8586 12.668 14.0147 12.8478 14.1282C13.0322 14.2417 13.2403 14.2985 13.472 14.2985ZM17.353 14.8234C17.0078 14.8234 16.7406 14.7336 16.5514 14.5538C16.3622 14.3741 16.2676 14.1211 16.2676 13.7948V10.0846H16.8352V13.738C16.8352 13.9177 16.8825 14.0573 16.977 14.1566C17.0764 14.2512 17.2135 14.2985 17.3885 14.2985C17.4453 14.2985 17.4996 14.2914 17.5517 14.2772C17.6084 14.2583 17.6817 14.2157 17.7716 14.1495L17.9915 14.6106C17.8685 14.691 17.7574 14.7454 17.6581 14.7738C17.5588 14.8069 17.4571 14.8234 17.353 14.8234ZM15.6505 11.6949V11.1913H17.8993V11.6949H15.6505ZM20.8646 14.7383L20.8362 14.1566V12.8655C20.8362 12.5864 20.8055 12.357 20.744 12.1773C20.6825 11.9929 20.5855 11.8534 20.4531 11.7588C20.3207 11.6642 20.1481 11.6169 19.9353 11.6169C19.7414 11.6169 19.5735 11.6571 19.4316 11.7375C19.2944 11.8132 19.1809 11.9361 19.0911 12.1064L18.5803 11.9078C18.6702 11.7422 18.7789 11.6004 18.9066 11.4821C19.0343 11.3592 19.1833 11.2669 19.3535 11.2055C19.5238 11.1392 19.7177 11.1061 19.9353 11.1061C20.2663 11.1061 20.5383 11.1723 20.7511 11.3048C20.9686 11.4325 21.1318 11.624 21.2406 11.8794C21.3493 12.13 21.4014 12.4422 21.3966 12.8158L21.3895 14.7383H20.8646ZM19.8005 14.8234C19.3843 14.8234 19.058 14.7288 18.8215 14.5396C18.5898 14.3457 18.4739 14.0785 18.4739 13.738C18.4739 13.3786 18.5921 13.1043 18.8286 12.9151C19.0698 12.7212 19.4056 12.6243 19.8359 12.6243H20.8504V13.0996H19.9636C19.6326 13.0996 19.3961 13.1539 19.2542 13.2627C19.1171 13.3715 19.0485 13.5276 19.0485 13.7309C19.0485 13.9154 19.1171 14.062 19.2542 14.1708C19.3914 14.2748 19.5829 14.3268 19.8288 14.3268C20.0322 14.3268 20.2096 14.2843 20.3609 14.1991C20.5122 14.1093 20.6281 13.9839 20.7085 13.8232C20.7936 13.6576 20.8362 13.4637 20.8362 13.2414H21.0774C21.0774 13.7238 20.9686 14.1093 20.7511 14.3978C20.5335 14.6815 20.2167 14.8234 19.8005 14.8234ZM22.2959 14.7383V9.77246H22.8634V14.7383H22.2959Z" fill="white"/>
<path d="M10.5322 28.4344C10.2032 28.4344 9.90336 28.3861 9.6325 28.2893C9.36809 28.1862 9.13914 28.0539 8.94567 27.8927C8.75864 27.7315 8.61031 27.5606 8.50068 27.38L9.17784 27.0027C9.24878 27.093 9.33584 27.1962 9.43903 27.3123C9.54866 27.4219 9.68732 27.5154 9.855 27.5928C10.0227 27.6702 10.229 27.7089 10.4741 27.7089C10.9127 27.7089 11.2641 27.5832 11.5285 27.3316C11.793 27.0801 11.9252 26.7641 11.9252 26.3836C11.9252 26.0934 11.8446 25.8483 11.6833 25.6484C11.5285 25.4485 11.3028 25.2969 11.0062 25.1938C10.7095 25.0906 10.3548 25.039 9.94206 25.039H9.75826V24.4005H9.92271C10.329 24.4005 10.7031 24.4457 11.0449 24.5359C11.3867 24.6262 11.6833 24.7584 11.9348 24.9326C12.1928 25.1067 12.3895 25.3195 12.5249 25.571C12.6668 25.8225 12.7378 26.1128 12.7378 26.4417C12.7378 26.8415 12.6378 27.193 12.4379 27.4961C12.2444 27.7928 11.98 28.0249 11.6446 28.1926C11.3093 28.3538 10.9384 28.4344 10.5322 28.4344ZM9.75826 24.9713V24.3425H9.94206C10.4967 24.3425 10.9352 24.249 11.2577 24.0619C11.5866 23.8685 11.751 23.5944 11.751 23.2397C11.751 23.0462 11.6994 22.8688 11.5963 22.7076C11.4931 22.5399 11.3415 22.4077 11.1416 22.311C10.9481 22.2078 10.7224 22.1562 10.4644 22.1562C10.2903 22.1562 10.1259 22.182 9.97108 22.2336C9.82275 22.2788 9.68409 22.3497 9.55511 22.4464C9.43258 22.5367 9.31972 22.6528 9.21653 22.7947L8.57807 22.4271C8.7006 22.2272 8.85538 22.053 9.04241 21.9047C9.23588 21.7564 9.45515 21.6403 9.70022 21.5565C9.94528 21.4726 10.2129 21.4307 10.5031 21.4307C10.8965 21.4307 11.248 21.5081 11.5576 21.6629C11.8736 21.8176 12.1219 22.0305 12.3024 22.3013C12.483 22.5657 12.5733 22.8656 12.5733 23.201C12.5733 23.4847 12.5056 23.7363 12.3702 23.9555C12.2347 24.1748 12.0445 24.3618 11.7994 24.5166C11.5608 24.6714 11.2803 24.7875 10.9578 24.8649C10.6418 24.9358 10.2968 24.9713 9.92271 24.9713H9.75826ZM16.7325 28.3184V26.6738H13.6079V26.045L16.6938 21.5468H17.5257V25.9483H18.909V26.6738H17.5257V28.3184H16.7325ZM14.5462 25.9483H16.7325V22.7366L14.5462 25.9483ZM25.2469 28.3184L25.2082 27.5251V25.7645C25.2082 25.384 25.1663 25.0712 25.0824 24.8262C24.9986 24.5746 24.8664 24.3844 24.6858 24.2554C24.5052 24.1264 24.2698 24.0619 23.9796 24.0619C23.7152 24.0619 23.4863 24.1168 23.2928 24.2264C23.1058 24.3296 22.951 24.4973 22.8285 24.7294L22.132 24.4586C22.2545 24.2328 22.4028 24.0394 22.577 23.8781C22.7511 23.7105 22.9542 23.5847 23.1864 23.5009C23.4186 23.4106 23.683 23.3654 23.9796 23.3654C24.4311 23.3654 24.8019 23.4557 25.0921 23.6363C25.3888 23.8104 25.6113 24.0716 25.7596 24.4199C25.9079 24.7617 25.9789 25.1873 25.9724 25.6968L25.9627 28.3184H25.2469ZM23.7958 28.4344C23.2283 28.4344 22.7833 28.3055 22.4609 28.0475C22.1449 27.7831 21.9869 27.4187 21.9869 26.9544C21.9869 26.4642 22.1481 26.0902 22.4705 25.8322C22.7994 25.5678 23.2573 25.4356 23.8442 25.4356H25.2275V26.0837H24.0183C23.5669 26.0837 23.2444 26.1579 23.051 26.3062C22.8639 26.4546 22.7704 26.6674 22.7704 26.9447C22.7704 27.1962 22.8639 27.3961 23.051 27.5445C23.238 27.6863 23.4992 27.7573 23.8345 27.7573C24.1118 27.7573 24.3537 27.6992 24.5601 27.5832C24.7664 27.4606 24.9244 27.2897 25.0341 27.0705C25.1502 26.8447 25.2082 26.5803 25.2082 26.2772H25.5371C25.5371 26.935 25.3888 27.4606 25.0921 27.854C24.7954 28.241 24.3634 28.4344 23.7958 28.4344ZM27.1987 28.3184V21.5468H27.9726V28.3184H27.1987ZM31.4428 28.4344C30.972 28.4344 30.5561 28.328 30.1949 28.1152C29.8338 27.8959 29.55 27.5961 29.3436 27.2156C29.1437 26.8351 29.0437 26.3965 29.0437 25.8999C29.0437 25.4034 29.1437 24.9648 29.3436 24.5843C29.55 24.2038 29.8305 23.9072 30.1852 23.6943C30.5464 23.4751 30.9591 23.3654 31.4235 23.3654C31.8749 23.3654 32.2651 23.4783 32.594 23.704C32.9229 23.9233 33.1776 24.2328 33.3582 24.6327C33.5388 25.0325 33.6291 25.5033 33.6291 26.045H29.6338L29.8273 25.8806C29.8273 26.2675 29.895 26.5997 30.0305 26.877C30.1723 27.1543 30.369 27.3671 30.6205 27.5154C30.8721 27.6573 31.159 27.7283 31.4815 27.7283C31.8233 27.7283 32.1103 27.6477 32.3425 27.4864C32.5811 27.3252 32.7649 27.1124 32.8939 26.848L33.5613 27.1865C33.4388 27.4381 33.2744 27.6573 33.068 27.8443C32.8681 28.0314 32.6294 28.1765 32.3521 28.2797C32.0813 28.3829 31.7782 28.4344 31.4428 28.4344ZM29.8757 25.5517L29.6725 25.3969H33.0099L32.8068 25.5614C32.8068 25.2518 32.7455 24.9842 32.623 24.7584C32.5005 24.5327 32.336 24.3586 32.1296 24.2361C31.9233 24.1135 31.6847 24.0523 31.4138 24.0523C31.1494 24.0523 30.8979 24.1135 30.6592 24.2361C30.4271 24.3586 30.2368 24.5327 30.0885 24.7584C29.9466 24.9777 29.8757 25.2421 29.8757 25.5517ZM35.0308 25.6968C35.0308 25.1744 35.1307 24.752 35.3306 24.4295C35.5306 24.1006 35.7853 23.8588 36.0949 23.704C36.4109 23.5428 36.743 23.4622 37.0913 23.4622V24.1877C36.8075 24.1877 36.5334 24.2361 36.269 24.3328C36.011 24.4231 35.7982 24.5746 35.6305 24.7875C35.4629 25.0003 35.379 25.2905 35.379 25.6581L35.0308 25.6968ZM34.6051 28.3184V23.4815H35.379V28.3184H34.6051ZM39.6924 28.4344C39.2216 28.4344 38.8573 28.3119 38.5993 28.0668C38.3413 27.8218 38.2123 27.4767 38.2123 27.0318V21.9724H38.9862V26.9544C38.9862 27.1994 39.0507 27.3897 39.1797 27.5251C39.3151 27.6541 39.5022 27.7186 39.7408 27.7186C39.8182 27.7186 39.8923 27.7089 39.9633 27.6896C40.0407 27.6638 40.1406 27.6057 40.2632 27.5154L40.5631 28.1442C40.3954 28.2539 40.2438 28.328 40.1084 28.3667C39.973 28.4119 39.8343 28.4344 39.6924 28.4344ZM37.3707 24.1683V23.4815H40.4373V24.1683H37.3707ZM43.2226 28.4344C42.8679 28.4344 42.5584 28.3829 42.294 28.2797C42.0296 28.17 41.8071 28.0281 41.6265 27.854C41.4524 27.6799 41.3266 27.4896 41.2492 27.2833L41.9264 27.0027C42.036 27.222 42.2005 27.3994 42.4197 27.5348C42.639 27.6702 42.8808 27.7379 43.1452 27.7379C43.4484 27.7379 43.7031 27.6799 43.9095 27.5638C44.1158 27.4413 44.219 27.2704 44.219 27.0511C44.219 26.8512 44.1416 26.69 43.9869 26.5674C43.8385 26.4449 43.616 26.3449 43.3194 26.2675L42.855 26.1418C42.4165 26.0257 42.0747 25.8516 41.8296 25.6194C41.5846 25.3808 41.462 25.1131 41.462 24.8165C41.462 24.3586 41.6104 24.0039 41.907 23.7524C42.2101 23.4944 42.6583 23.3654 43.2517 23.3654C43.5354 23.3654 43.7934 23.4074 44.0256 23.4912C44.2577 23.575 44.4576 23.6943 44.6253 23.8491C44.793 23.9974 44.9155 24.1748 44.9929 24.3812L44.3158 24.6811C44.2319 24.4618 44.0933 24.3038 43.8998 24.207C43.7063 24.1103 43.4709 24.0619 43.1936 24.0619C42.897 24.0619 42.6648 24.1264 42.4971 24.2554C42.3294 24.3779 42.2456 24.5521 42.2456 24.7778C42.2456 24.9068 42.3133 25.0293 42.4487 25.1454C42.5906 25.255 42.797 25.3453 43.0679 25.4163L43.5515 25.542C43.8676 25.6194 44.132 25.7355 44.3448 25.8903C44.5576 26.0386 44.7188 26.2095 44.8285 26.403C44.9381 26.5964 44.9929 26.8028 44.9929 27.0221C44.9929 27.3123 44.9155 27.5638 44.7608 27.7766C44.606 27.9895 44.3964 28.1539 44.132 28.27C43.8676 28.3796 43.5644 28.4344 43.2226 28.4344ZM48.8517 25.6968C48.8517 25.1744 48.9516 24.752 49.1515 24.4295C49.3515 24.1006 49.6062 23.8588 49.9158 23.704C50.2318 23.5428 50.5639 23.4622 50.9122 23.4622V24.1877C50.6284 24.1877 50.3543 24.2361 50.0899 24.3328C49.8319 24.4231 49.6191 24.5746 49.4514 24.7875C49.2838 25.0003 49.1999 25.2905 49.1999 25.6581L48.8517 25.6968ZM48.426 28.3184V23.4815H49.1999V28.3184H48.426ZM53.8132 28.4344C53.3424 28.4344 52.9265 28.328 52.5653 28.1152C52.2042 27.8959 51.9204 27.5961 51.714 27.2156C51.5141 26.8351 51.4141 26.3965 51.4141 25.8999C51.4141 25.4034 51.5141 24.9648 51.714 24.5843C51.9204 24.2038 52.2009 23.9072 52.5556 23.6943C52.9168 23.4751 53.3295 23.3654 53.7939 23.3654C54.2453 23.3654 54.6355 23.4783 54.9644 23.704C55.2933 23.9233 55.548 24.2328 55.7286 24.6327C55.9092 25.0325 55.9995 25.5033 55.9995 26.045H52.0042L52.1977 25.8806C52.1977 26.2675 52.2654 26.5997 52.4009 26.877C52.5427 27.1543 52.7394 27.3671 52.9909 27.5154C53.2425 27.6573 53.5294 27.7283 53.8519 27.7283C54.1937 27.7283 54.4807 27.6477 54.7129 27.4864C54.9515 27.3252 55.1353 27.1124 55.2643 26.848L55.9317 27.1865C55.8092 27.4381 55.6448 27.6573 55.4384 27.8443C55.2385 28.0314 54.9998 28.1765 54.7225 28.2797C54.4517 28.3829 54.1486 28.4344 53.8132 28.4344ZM52.2461 25.5517L52.0429 25.3969H55.3803L55.1772 25.5614C55.1772 25.2518 55.1159 24.9842 54.9934 24.7584C54.8709 24.5327 54.7064 24.3586 54.5 24.2361C54.2937 24.1135 54.0551 24.0523 53.7842 24.0523C53.5198 24.0523 53.2683 24.1135 53.0296 24.2361C52.7975 24.3586 52.6072 24.5327 52.4589 24.7584C52.317 24.9777 52.2461 25.2421 52.2461 25.5517ZM59.1328 28.4344C58.6555 28.4344 58.2331 28.328 57.8655 28.1152C57.4979 27.8959 57.2109 27.5961 57.0045 27.2156C56.7982 26.8351 56.695 26.3965 56.695 25.8999C56.695 25.4034 56.7949 24.9648 56.9949 24.5843C57.2012 24.2038 57.4882 23.9072 57.8558 23.6943C58.2234 23.4751 58.6426 23.3654 59.1134 23.3654C59.5777 23.3654 59.9937 23.4718 60.3613 23.6847C60.7289 23.8975 61.0094 24.1974 61.2029 24.5843L60.4967 24.9035C60.3678 24.6456 60.1807 24.4457 59.9357 24.3038C59.6906 24.1554 59.4101 24.0813 59.0941 24.0813C58.7781 24.0813 58.4975 24.1587 58.2524 24.3135C58.0138 24.4682 57.8236 24.6843 57.6817 24.9616C57.5463 25.2325 57.4786 25.5452 57.4786 25.8999C57.4786 26.2546 57.5463 26.5706 57.6817 26.848C57.8236 27.1188 58.0171 27.3316 58.2621 27.4864C58.5136 27.6412 58.7974 27.7186 59.1134 27.7186C59.4294 27.7186 59.7099 27.638 59.955 27.4767C60.2065 27.3155 60.3968 27.0898 60.5258 26.7996L61.2319 27.1188C61.0385 27.5316 60.7579 27.854 60.3903 28.0862C60.0227 28.3184 59.6035 28.4344 59.1328 28.4344ZM64.3277 28.4344C63.8569 28.4344 63.4409 28.328 63.0798 28.1152C62.7186 27.8959 62.4349 27.5961 62.2285 27.2156C62.0286 26.8351 61.9286 26.3965 61.9286 25.8999C61.9286 25.4034 62.0286 24.9648 62.2285 24.5843C62.4349 24.2038 62.7154 23.9072 63.0701 23.6943C63.4312 23.4751 63.844 23.3654 64.3083 23.3654C64.7598 23.3654 65.1499 23.4783 65.4788 23.704C65.8077 23.9233 66.0625 24.2328 66.2431 24.6327C66.4236 25.0325 66.5139 25.5033 66.5139 26.045H62.5187L62.7122 25.8806C62.7122 26.2675 62.7799 26.5997 62.9153 26.877C63.0572 27.1543 63.2539 27.3671 63.5054 27.5154C63.7569 27.6573 64.0439 27.7283 64.3664 27.7283C64.7082 27.7283 64.9952 27.6477 65.2273 27.4864C65.4659 27.3252 65.6497 27.1124 65.7787 26.848L66.4462 27.1865C66.3237 27.4381 66.1592 27.6573 65.9529 27.8443C65.7529 28.0314 65.5143 28.1765 65.237 28.2797C64.9661 28.3829 64.663 28.4344 64.3277 28.4344ZM62.7605 25.5517L62.5574 25.3969H65.8948L65.6917 25.5614C65.6917 25.2518 65.6304 24.9842 65.5079 24.7584C65.3853 24.5327 65.2209 24.3586 65.0145 24.2361C64.8081 24.1135 64.5695 24.0523 64.2987 24.0523C64.0342 24.0523 63.7827 24.1135 63.5441 24.2361C63.3119 24.3586 63.1217 24.5327 62.9734 24.7584C62.8315 24.9777 62.7605 25.2421 62.7605 25.5517ZM67.5384 28.3184V23.4815H68.3122V28.3184H67.5384ZM67.935 22.3594C67.806 22.3594 67.6931 22.311 67.5964 22.2143C67.4997 22.1175 67.4513 22.0047 67.4513 21.8757C67.4513 21.7403 67.4997 21.6274 67.5964 21.5371C67.6931 21.4404 67.806 21.392 67.935 21.392C68.0704 21.392 68.1833 21.4404 68.2736 21.5371C68.3703 21.6274 68.4187 21.7403 68.4187 21.8757C68.4187 22.0047 68.3703 22.1175 68.2736 22.2143C68.1833 22.311 68.0704 22.3594 67.935 22.3594ZM71.2184 28.3184L73.1919 23.4815H74.0045L71.9827 28.3184H71.2184ZM71.1701 28.3184L69.1483 23.4815H69.9512L71.9246 28.3184H71.1701ZM76.7693 28.4344C76.2985 28.4344 75.8826 28.328 75.5214 28.1152C75.1603 27.8959 74.8765 27.5961 74.6701 27.2156C74.4702 26.8351 74.3702 26.3965 74.3702 25.8999C74.3702 25.4034 74.4702 24.9648 74.6701 24.5843C74.8765 24.2038 75.157 23.9072 75.5117 23.6943C75.8729 23.4751 76.2856 23.3654 76.75 23.3654C77.2014 23.3654 77.5916 23.4783 77.9205 23.704C78.2494 23.9233 78.5041 24.2328 78.6847 24.6327C78.8653 25.0325 78.9556 25.5033 78.9556 26.045H74.9603L75.1538 25.8806C75.1538 26.2675 75.2215 26.5997 75.357 26.877C75.4988 27.1543 75.6955 27.3671 75.9471 27.5154C76.1986 27.6573 76.4856 27.7283 76.808 27.7283C77.1498 27.7283 77.4368 27.6477 77.669 27.4864C77.9076 27.3252 78.0914 27.1124 78.2204 26.848L78.8879 27.1865C78.7653 27.4381 78.6009 27.6573 78.3945 27.8443C78.1946 28.0314 77.956 28.1765 77.6786 28.2797C77.4078 28.3829 77.1047 28.4344 76.7693 28.4344ZM75.2022 25.5517L74.999 25.3969H78.3365L78.1333 25.5614C78.1333 25.2518 78.072 24.9842 77.9495 24.7584C77.827 24.5327 77.6625 24.3586 77.4562 24.2361C77.2498 24.1135 77.0112 24.0523 76.7403 24.0523C76.4759 24.0523 76.2244 24.1135 75.9858 24.2361C75.7536 24.3586 75.5633 24.5327 75.415 24.7584C75.2731 24.9777 75.2022 25.2421 75.2022 25.5517ZM83.5109 28.3184L83.4722 27.4187V21.5468H84.2461V28.3184H83.5109ZM81.8373 28.4344C81.4053 28.4344 81.0248 28.328 80.6959 28.1152C80.3669 27.9024 80.109 27.6057 79.922 27.2252C79.7414 26.8383 79.6511 26.3965 79.6511 25.8999C79.6511 25.3969 79.7414 24.9551 79.922 24.5746C80.109 24.1941 80.3669 23.8975 80.6959 23.6847C81.0248 23.4718 81.4053 23.3654 81.8373 23.3654C82.2436 23.3654 82.5983 23.4718 82.9015 23.6847C83.211 23.8975 83.4496 24.1941 83.6173 24.5746C83.785 24.9551 83.8688 25.3969 83.8688 25.8999C83.8688 26.3965 83.785 26.8383 83.6173 27.2252C83.4496 27.6057 83.211 27.9024 82.9015 28.1152C82.5983 28.328 82.2436 28.4344 81.8373 28.4344ZM82.0115 27.7283C82.2952 27.7283 82.5467 27.6509 82.766 27.4961C82.9853 27.3413 83.1562 27.1253 83.2787 26.848C83.4077 26.5706 83.4722 26.2546 83.4722 25.8999C83.4722 25.5452 83.4077 25.2292 83.2787 24.9519C83.1562 24.6746 82.9853 24.4586 82.766 24.3038C82.5467 24.149 82.292 24.0716 82.0018 24.0716C81.6987 24.0716 81.4278 24.149 81.1892 24.3038C80.957 24.4586 80.7732 24.6746 80.6378 24.9519C80.5024 25.2292 80.4347 25.5452 80.4347 25.8999C80.4347 26.2546 80.5024 26.5706 80.6378 26.848C80.7732 27.1253 80.9603 27.3413 81.1989 27.4961C81.4375 27.6509 81.7084 27.7283 82.0115 27.7283ZM85.0678 29.1309L87.7377 21.0921H88.5406L85.89 29.1309H85.0678ZM89.3597 28.3184V21.5468H90.1336V28.3184H89.3597ZM92.7648 28.3184V25.8419H93.5387V28.3184H92.7648ZM92.7648 25.8419C92.7648 25.3647 92.7068 25.0003 92.5907 24.7488C92.4811 24.4973 92.3295 24.3264 92.136 24.2361C91.9426 24.1393 91.7233 24.091 91.4782 24.091C91.0526 24.091 90.7205 24.2425 90.4818 24.5456C90.2497 24.8423 90.1336 25.2647 90.1336 25.8129H89.7563C89.7563 25.3034 89.8305 24.8649 89.9788 24.4973C90.1336 24.1297 90.3529 23.8491 90.6366 23.6556C90.9204 23.4622 91.2622 23.3654 91.662 23.3654C92.0361 23.3654 92.365 23.4428 92.6487 23.5976C92.9325 23.7459 93.1518 23.9845 93.3066 24.3135C93.4678 24.6424 93.5452 25.0744 93.5387 25.6097V25.8419H92.7648ZM96.8918 28.4344C96.421 28.4344 96.0018 28.328 95.6342 28.1152C95.2731 27.8959 94.9893 27.5961 94.7829 27.2156C94.5766 26.8351 94.4734 26.3965 94.4734 25.8999C94.4734 25.4034 94.5733 24.9648 94.7733 24.5843C94.9796 24.2038 95.2634 23.9072 95.6245 23.6943C95.9921 23.4751 96.4081 23.3654 96.8724 23.3654C97.3497 23.3654 97.7689 23.4751 98.13 23.6943C98.4976 23.9072 98.7814 24.2038 98.9813 24.5843C99.1877 24.9648 99.2909 25.4034 99.2909 25.8999C99.2909 26.3965 99.1877 26.8351 98.9813 27.2156C98.7814 27.5961 98.5009 27.8959 98.1397 28.1152C97.7785 28.328 97.3626 28.4344 96.8918 28.4344ZM96.8918 27.7186C97.2143 27.7186 97.4948 27.6412 97.7334 27.4864C97.972 27.3316 98.159 27.1188 98.2945 26.848C98.4364 26.5771 98.5073 26.2611 98.5073 25.8999C98.5073 25.5388 98.4364 25.2228 98.2945 24.9519C98.159 24.6811 97.9688 24.4682 97.7237 24.3135C97.4787 24.1587 97.1949 24.0813 96.8724 24.0813C96.5564 24.0813 96.2759 24.1587 96.0308 24.3135C95.7922 24.4682 95.602 24.6811 95.4601 24.9519C95.3247 25.2228 95.2569 25.5388 95.2569 25.8999C95.2569 26.2546 95.3247 26.5706 95.4601 26.848C95.602 27.1188 95.7954 27.3316 96.0405 27.4864C96.292 27.6412 96.5758 27.7186 96.8918 27.7186ZM103.683 28.3184L103.635 27.4284V23.4815H104.409V28.3184H103.683ZM100.24 25.958V23.4815H101.014V25.958H100.24ZM101.014 25.958C101.014 26.4352 101.068 26.7996 101.178 27.0511C101.288 27.3026 101.439 27.4767 101.633 27.5735C101.833 27.6638 102.055 27.7089 102.3 27.7089C102.719 27.7089 103.045 27.5574 103.277 27.2543C103.516 26.9511 103.635 26.5287 103.635 25.987H104.012C104.012 26.4965 103.938 26.935 103.79 27.3026C103.642 27.6702 103.426 27.9508 103.142 28.1442C102.864 28.3377 102.523 28.4344 102.116 28.4344C101.742 28.4344 101.413 28.3603 101.13 28.2119C100.846 28.0572 100.627 27.8153 100.472 27.4864C100.317 27.1511 100.24 26.719 100.24 26.1901V25.958H101.014ZM106.185 25.6968C106.185 25.1744 106.285 24.752 106.485 24.4295C106.685 24.1006 106.94 23.8588 107.249 23.704C107.565 23.5428 107.898 23.4622 108.246 23.4622V24.1877C107.962 24.1877 107.688 24.2361 107.423 24.3328C107.166 24.4231 106.953 24.5746 106.785 24.7875C106.617 25.0003 106.534 25.2905 106.534 25.6581L106.185 25.6968ZM105.76 28.3184V23.4815H106.534V28.3184H105.76Z" fill="white"/>
<path d="M10.7037 40.9836C10.226 40.9836 9.80276 40.8748 9.43387 40.6572C9.06498 40.4397 8.77649 40.137 8.56839 39.7492C8.3603 39.3614 8.25626 38.9168 8.25626 38.4155C8.25626 37.9095 8.35794 37.4649 8.5613 37.0818C8.76939 36.694 9.05552 36.3914 9.41968 36.1738C9.78384 35.9563 10.2048 35.8475 10.6824 35.8475C11.1601 35.8475 11.581 35.9586 11.9452 36.1809C12.314 36.3985 12.6002 36.7011 12.8035 37.0889C13.0069 37.472 13.1086 37.9142 13.1086 38.4155C13.1086 38.9168 13.0069 39.3614 12.8035 39.7492C12.6002 40.137 12.3164 40.4397 11.9523 40.6572C11.5928 40.8748 11.1766 40.9836 10.7037 40.9836ZM10.7037 40.4373C11.0584 40.4373 11.3705 40.3522 11.6401 40.1819C11.9097 40.007 12.1201 39.7681 12.2715 39.4654C12.4276 39.1628 12.5056 38.8128 12.5056 38.4155C12.5056 38.023 12.4276 37.6754 12.2715 37.3727C12.1154 37.0653 11.9002 36.8265 11.6259 36.6562C11.3564 36.4812 11.0418 36.3937 10.6824 36.3937C10.3277 36.3937 10.0132 36.4812 9.73891 36.6562C9.46461 36.8265 9.24942 37.0653 9.09335 37.3727C8.93728 37.6754 8.85925 38.023 8.85925 38.4155C8.85925 38.8128 8.93728 39.1628 9.09335 39.4654C9.24942 39.7681 9.46697 40.007 9.74601 40.1819C10.025 40.3522 10.3443 40.4373 10.7037 40.4373ZM15.5161 40.9836C15.1661 40.9836 14.8563 40.9055 14.5867 40.7495C14.3172 40.5887 14.1067 40.3687 13.9554 40.0897C13.804 39.8107 13.7284 39.4891 13.7284 39.1249C13.7284 38.7608 13.8017 38.4392 13.9483 38.1601C14.0996 37.8811 14.3101 37.6636 14.5796 37.5075C14.8492 37.3467 15.1566 37.2663 15.5019 37.2663C15.8424 37.2663 16.1474 37.3443 16.417 37.5004C16.6866 37.6565 16.8923 37.8764 17.0342 38.1601L16.5163 38.3942C16.4217 38.2051 16.2846 38.0585 16.1049 37.9544C15.9252 37.8456 15.7194 37.7912 15.4877 37.7912C15.2559 37.7912 15.0502 37.848 14.8705 37.9615C14.6955 38.075 14.556 38.2334 14.452 38.4368C14.3526 38.6354 14.303 38.8648 14.303 39.1249C14.303 39.385 14.3526 39.6168 14.452 39.8201C14.556 40.0188 14.6979 40.1748 14.8776 40.2884C15.062 40.4019 15.2701 40.4586 15.5019 40.4586C15.7336 40.4586 15.9393 40.3995 16.1191 40.2813C16.3035 40.163 16.443 39.9975 16.5376 39.7847L17.0555 40.0188C16.9136 40.3215 16.7079 40.5579 16.4383 40.7282C16.1687 40.8984 15.8613 40.9836 15.5161 40.9836ZM19.1058 40.9836C18.7605 40.9836 18.4933 40.8937 18.3041 40.714C18.115 40.5343 18.0204 40.2813 18.0204 39.9549V36.2447H18.5879V39.8982C18.5879 40.0779 18.6352 40.2174 18.7298 40.3167C18.8291 40.4113 18.9662 40.4586 19.1412 40.4586C19.198 40.4586 19.2524 40.4515 19.3044 40.4373C19.3611 40.4184 19.4344 40.3758 19.5243 40.3096L19.7442 40.7707C19.6213 40.8511 19.5101 40.9055 19.4108 40.9339C19.3115 40.967 19.2098 40.9836 19.1058 40.9836ZM17.4032 37.8551V37.3514H19.652V37.8551H17.4032ZM23.6176 40.9836C23.3764 40.9836 23.1565 40.9481 22.9578 40.8772C22.7639 40.8015 22.596 40.7045 22.4541 40.5863C22.317 40.4681 22.2082 40.3427 22.1278 40.2103L22.6244 39.9336C22.6764 39.9999 22.7403 40.0755 22.8159 40.1607C22.8963 40.2411 22.998 40.3096 23.121 40.3664C23.2439 40.4231 23.3953 40.4515 23.575 40.4515C23.8966 40.4515 24.1543 40.3593 24.3482 40.1748C24.5422 39.9904 24.6391 39.7587 24.6391 39.4796C24.6391 39.2668 24.58 39.0871 24.4618 38.9405C24.3482 38.7939 24.1827 38.6827 23.9652 38.6071C23.7476 38.5314 23.4875 38.4936 23.1848 38.4936H23.05V38.0254H23.1706C23.4686 38.0254 23.7429 38.0585 23.9935 38.1247C24.2442 38.1909 24.4618 38.2878 24.6462 38.4155C24.8354 38.5432 24.9796 38.6993 25.0789 38.8837C25.183 39.0682 25.235 39.281 25.235 39.5222C25.235 39.8154 25.1617 40.0732 25.0151 40.2954C24.8732 40.513 24.6793 40.6833 24.4334 40.8062C24.1875 40.9244 23.9155 40.9836 23.6176 40.9836ZM23.05 38.4439V37.9828H23.1848C23.5916 37.9828 23.9131 37.9142 24.1496 37.7771C24.3908 37.6352 24.5114 37.4342 24.5114 37.1741C24.5114 37.0322 24.4736 36.9021 24.3979 36.7839C24.3222 36.6609 24.2111 36.564 24.0645 36.493C23.9226 36.4174 23.7571 36.3795 23.5679 36.3795C23.4402 36.3795 23.3196 36.3985 23.2061 36.4363C23.0973 36.4694 22.9957 36.5214 22.9011 36.5924C22.8112 36.6586 22.7284 36.7437 22.6528 36.8477L22.1846 36.5782C22.2744 36.4316 22.3879 36.3039 22.5251 36.1951C22.667 36.0863 22.8278 36.0012 23.0075 35.9397C23.1872 35.8782 23.3835 35.8475 23.5963 35.8475C23.8848 35.8475 24.1425 35.9042 24.3695 36.0177C24.6013 36.1312 24.7833 36.2873 24.9158 36.4859C25.0482 36.6799 25.1144 36.8998 25.1144 37.1457C25.1144 37.3538 25.0647 37.5382 24.9654 37.699C24.8661 37.8598 24.7266 37.997 24.5469 38.1105C24.3719 38.224 24.1662 38.3091 23.9297 38.3659C23.698 38.4179 23.4449 38.4439 23.1706 38.4439H23.05ZM27.1074 40.8984V36.2518L27.1571 35.9326H27.6962V40.8984H27.1074ZM25.9937 37.2095V36.6633C26.093 36.668 26.2112 36.6349 26.3484 36.564C26.4855 36.493 26.6274 36.4008 26.774 36.2873C26.9206 36.1738 27.0483 36.0556 27.1571 35.9326L27.526 36.337C27.3699 36.5025 27.2068 36.6515 27.0365 36.7839C26.8662 36.9163 26.6936 37.0227 26.5186 37.1031C26.3436 37.1788 26.1687 37.2143 25.9937 37.2095ZM28.7822 41.7143L29.1866 40.2174H29.8251L29.2717 41.7143H28.7822ZM32.2559 40.8984V40.4019C32.2559 40.2458 32.2866 40.0921 32.3481 39.9407C32.4143 39.7847 32.5065 39.631 32.6248 39.4796C32.7477 39.3283 32.8967 39.1864 33.0717 39.054L34.1003 38.2807C34.2233 38.1956 34.3297 38.0987 34.4196 37.9899C34.5142 37.8764 34.5875 37.7605 34.6395 37.6423C34.6915 37.5193 34.7175 37.4011 34.7175 37.2876C34.7175 37.122 34.6773 36.9731 34.5969 36.8406C34.5165 36.7035 34.403 36.5947 34.2564 36.5143C34.1098 36.4339 33.9372 36.3937 33.7385 36.3937C33.5446 36.3937 33.3744 36.4316 33.2278 36.5072C33.0812 36.5782 32.9606 36.6751 32.866 36.7981C32.7714 36.9163 32.7028 37.044 32.6602 37.1812L32.0502 37.0606C32.1069 36.8477 32.2086 36.6491 32.3552 36.4647C32.5065 36.2802 32.6981 36.1312 32.9298 36.0177C33.1616 35.9042 33.4193 35.8475 33.7031 35.8475C34.0341 35.8475 34.3202 35.9113 34.5614 36.039C34.8026 36.162 34.9895 36.3322 35.1219 36.5498C35.259 36.7626 35.3276 37.0062 35.3276 37.2805C35.3276 37.5406 35.2567 37.7865 35.1148 38.0183C34.9729 38.25 34.7672 38.4746 34.4976 38.6922L33.5257 39.43C33.3365 39.5719 33.1899 39.7208 33.0859 39.8769C32.9866 40.033 32.9298 40.1961 32.9156 40.3664H35.3985V40.8984H32.2559ZM38.0843 40.9836C37.706 40.9836 37.3702 40.8748 37.0769 40.6572C36.7837 40.435 36.5544 40.1323 36.3888 39.7492C36.2233 39.3614 36.1405 38.9168 36.1405 38.4155C36.1405 37.9142 36.2233 37.472 36.3888 37.0889C36.5544 36.7011 36.7814 36.3985 37.0699 36.1809C37.3631 35.9586 37.7012 35.8475 38.0843 35.8475C38.4674 35.8475 38.8032 35.9586 39.0917 36.1809C39.3849 36.3985 39.6142 36.7011 39.7798 37.0889C39.95 37.472 40.0352 37.9142 40.0352 38.4155C40.0352 38.9168 39.9524 39.3614 39.7869 39.7492C39.6213 40.1323 39.392 40.435 39.0987 40.6572C38.8055 40.8748 38.4674 40.9836 38.0843 40.9836ZM38.0843 40.4444C38.3491 40.4444 38.5832 40.3569 38.7866 40.1819C38.9947 40.007 39.1555 39.7681 39.269 39.4654C39.3872 39.1628 39.4464 38.8128 39.4464 38.4155C39.4464 38.0183 39.3872 37.6683 39.269 37.3656C39.1555 37.0582 38.9947 36.8194 38.7866 36.6491C38.5832 36.4741 38.3491 36.3866 38.0843 36.3866C37.8195 36.3866 37.5854 36.4741 37.382 36.6491C37.1786 36.8194 37.0178 37.0582 36.8996 37.3656C36.7861 37.6683 36.7293 38.0183 36.7293 38.4155C36.7293 38.8128 36.7861 39.1628 36.8996 39.4654C37.0178 39.7681 37.1786 40.007 37.382 40.1819C37.5901 40.3569 37.8242 40.4444 38.0843 40.4444ZM40.7632 40.8984V40.4019C40.7632 40.2458 40.7939 40.0921 40.8554 39.9407C40.9216 39.7847 41.0138 39.631 41.1321 39.4796C41.255 39.3283 41.404 39.1864 41.579 39.054L42.6076 38.2807C42.7306 38.1956 42.837 38.0987 42.9269 37.9899C43.0215 37.8764 43.0948 37.7605 43.1468 37.6423C43.1988 37.5193 43.2248 37.4011 43.2248 37.2876C43.2248 37.122 43.1846 36.9731 43.1042 36.8406C43.0238 36.7035 42.9103 36.5947 42.7637 36.5143C42.6171 36.4339 42.4445 36.3937 42.2458 36.3937C42.0519 36.3937 41.8817 36.4316 41.7351 36.5072C41.5885 36.5782 41.4679 36.6751 41.3733 36.7981C41.2787 36.9163 41.2101 37.044 41.1675 37.1812L40.5575 37.0606C40.6142 36.8477 40.7159 36.6491 40.8625 36.4647C41.0138 36.2802 41.2054 36.1312 41.4371 36.0177C41.6689 35.9042 41.9266 35.8475 42.2104 35.8475C42.5414 35.8475 42.8275 35.9113 43.0687 36.039C43.3099 36.162 43.4968 36.3322 43.6292 36.5498C43.7663 36.7626 43.8349 37.0062 43.8349 37.2805C43.8349 37.5406 43.764 37.7865 43.6221 38.0183C43.4802 38.25 43.2745 38.4746 43.0049 38.6922L42.033 39.43C41.8438 39.5719 41.6972 39.7208 41.5932 39.8769C41.4939 40.033 41.4371 40.1961 41.4229 40.3664H43.9058V40.8984H40.7632ZM46.9179 40.8984V39.6925H44.6266V39.2313L46.8895 35.9326H47.4996V39.1604H48.5141V39.6925H47.4996V40.8984H46.9179ZM45.3147 39.1604H46.9179V36.8052L45.3147 39.1604Z" fill="white"/>
</svg>
