<svg width="80" height="50" viewBox="0 0 80 50" fill="none" xmlns="http://www.w3.org/2000/svg">
<g filter="url(#filter0_d_3879_12659)">
<path fill-rule="evenodd" clip-rule="evenodd" d="M37.4734 5.9992C39.0651 3.3336 42.9242 3.3336 44.5179 5.9992L56.8263 26.5768C58.4673 29.3206 56.4957 32.8096 53.302 32.8096H28.6893C25.4957 32.8096 23.524 29.3206 25.165 26.5768L37.4734 5.9992ZM40.9957 12.2258C41.4042 12.2258 41.796 12.3884 42.0849 12.678C42.3737 12.9675 42.536 13.3601 42.536 13.7696V19.9447C42.536 20.3541 42.3737 20.7468 42.0849 21.0363C41.796 21.3258 41.4042 21.4885 40.9957 21.4885C40.5872 21.4885 40.1954 21.3258 39.9065 21.0363C39.6176 20.7468 39.4553 20.3541 39.4553 19.9447V13.7696C39.4553 13.3601 39.6176 12.9675 39.9065 12.678C40.1954 12.3884 40.5872 12.2258 40.9957 12.2258ZM43.0495 25.6052C43.0495 26.1512 42.8331 26.6747 42.4479 27.0607C42.0628 27.4468 41.5404 27.6636 40.9957 27.6636C40.451 27.6636 39.9286 27.4468 39.5434 27.0607C39.1583 26.6747 38.9419 26.1512 38.9419 25.6052C38.9419 25.0593 39.1583 24.5358 39.5434 24.1498C39.9286 23.7637 40.451 23.5469 40.9957 23.5469C41.5404 23.5469 42.0628 23.7637 42.4479 24.1498C42.8331 24.5358 43.0495 25.0593 43.0495 25.6052Z" fill="#FF4B4B"/>
<path d="M18.017 11.4511C18.017 11.4511 15.0121 14.4559 15.0121 19.4639C15.0121 24.472 18.017 27.4768 18.017 27.4768M12.0073 5.44141C12.0073 5.44141 6.99927 10.4495 6.99927 19.4639C6.99927 28.4784 12.0073 33.4865 12.0073 33.4865" stroke="#FF4B4B" stroke-width="2.30477" stroke-linecap="round" stroke-linejoin="round"/>
<path d="M62.1954 27.5411C62.1954 27.5411 65.2003 24.5363 65.2003 19.5282C65.2003 14.5202 62.1954 11.5154 62.1954 11.5154M68.2051 33.5508C68.2051 33.5508 73.2131 28.5427 73.2131 19.5282C73.2131 10.5138 68.2051 5.50571 68.2051 5.50571" stroke="#FF4B4B" stroke-width="2.30477" stroke-linecap="round" stroke-linejoin="round"/>
<path d="M29.0708 41.4023L27.6319 36.3738H28.7933L29.6257 39.8677H29.6674L30.5857 36.3738H31.5801L32.496 39.8751H32.5402L33.3726 36.3738H34.5339L33.0951 41.4023H32.0589L31.1013 38.1146H31.0621L30.1069 41.4023H29.0708ZM35.6614 41.4735C35.4208 41.4735 35.2064 41.4318 35.0181 41.3483C34.8299 41.2632 34.6809 41.138 34.5713 40.9727C34.4632 40.8057 34.4092 40.5978 34.4092 40.349C34.4092 40.1395 34.4477 39.9635 34.5246 39.8211C34.6016 39.6787 34.7063 39.5641 34.8389 39.4773C34.9715 39.3906 35.1221 39.3251 35.2907 39.2809C35.4609 39.2367 35.6394 39.2056 35.826 39.1876C36.0453 39.1647 36.2221 39.1434 36.3563 39.1238C36.4905 39.1025 36.5879 39.0714 36.6485 39.0305C36.7091 38.9895 36.7394 38.929 36.7394 38.8488V38.834C36.7394 38.6785 36.6902 38.5582 36.592 38.4731C36.4955 38.388 36.358 38.3454 36.1795 38.3454C35.9913 38.3454 35.8415 38.3872 35.7302 38.4706C35.6189 38.5525 35.5452 38.6556 35.5092 38.78L34.5418 38.7014C34.5909 38.4723 34.6875 38.2742 34.8315 38.1072C34.9756 37.9386 35.1614 37.8093 35.3889 37.7193C35.6181 37.6276 35.8833 37.5818 36.1844 37.5818C36.394 37.5818 36.5945 37.6064 36.786 37.6555C36.9792 37.7046 37.1502 37.7807 37.2992 37.8838C37.4498 37.9869 37.5684 38.1195 37.6552 38.2816C37.742 38.442 37.7853 38.6343 37.7853 38.8586V41.4023H36.7934V40.8794H36.7639C36.7033 40.9972 36.6223 41.1012 36.5208 41.1912C36.4193 41.2796 36.2974 41.3491 36.155 41.3999C36.0126 41.449 35.8481 41.4735 35.6614 41.4735ZM35.961 40.7517C36.1149 40.7517 36.2507 40.7214 36.3686 40.6608C36.4865 40.5986 36.5789 40.5151 36.646 40.4104C36.7132 40.3056 36.7467 40.1869 36.7467 40.0544V39.6541C36.714 39.6754 36.669 39.695 36.6117 39.7131C36.556 39.7294 36.493 39.745 36.4226 39.7597C36.3522 39.7728 36.2818 39.7851 36.2115 39.7965C36.1411 39.8064 36.0772 39.8154 36.0199 39.8235C35.8972 39.8416 35.7899 39.8702 35.6983 39.9095C35.6066 39.9488 35.5354 40.002 35.4847 40.0691C35.4339 40.1346 35.4085 40.2164 35.4085 40.3146C35.4085 40.457 35.4601 40.5659 35.5632 40.6412C35.668 40.7148 35.8006 40.7517 35.961 40.7517ZM38.5046 41.4023V37.6309H39.5187V38.2889H39.558C39.6267 38.0549 39.7421 37.8781 39.9042 37.7586C40.0663 37.6375 40.2529 37.5769 40.464 37.5769C40.5164 37.5769 40.5729 37.5802 40.6334 37.5867C40.694 37.5933 40.7472 37.6023 40.793 37.6137V38.5418C40.7439 38.5271 40.676 38.514 40.5892 38.5026C40.5025 38.4911 40.4231 38.4854 40.3511 38.4854C40.1972 38.4854 40.0597 38.5189 39.9386 38.586C39.8191 38.6515 39.7241 38.7432 39.6538 38.861C39.585 38.9789 39.5506 39.1148 39.5506 39.2686V41.4023H38.5046ZM42.2876 39.222V41.4023H41.2416V37.6309H42.2385V38.2963H42.2827C42.3662 38.077 42.5062 37.9035 42.7026 37.7758C42.899 37.6465 43.1372 37.5818 43.4171 37.5818C43.679 37.5818 43.9073 37.6391 44.1021 37.7537C44.2969 37.8683 44.4483 38.032 44.5564 38.2447C44.6644 38.4559 44.7184 38.708 44.7184 39.001V41.4023H43.6725V39.1876C43.6741 38.9568 43.6152 38.7767 43.4957 38.6474C43.3762 38.5165 43.2117 38.451 43.0021 38.451C42.8614 38.451 42.737 38.4813 42.6289 38.5418C42.5225 38.6024 42.439 38.6908 42.3785 38.807C42.3195 38.9216 42.2893 39.0599 42.2876 39.222ZM45.4506 41.4023V37.6309H46.4966V41.4023H45.4506ZM45.9761 37.1447C45.8206 37.1447 45.6872 37.0932 45.5759 36.9901C45.4662 36.8853 45.4113 36.7601 45.4113 36.6144C45.4113 36.4703 45.4662 36.3468 45.5759 36.2436C45.6872 36.1389 45.8206 36.0865 45.9761 36.0865C46.1316 36.0865 46.2642 36.1389 46.3738 36.2436C46.4852 36.3468 46.5408 36.4703 46.5408 36.6144C46.5408 36.7601 46.4852 36.8853 46.3738 36.9901C46.2642 37.0932 46.1316 37.1447 45.9761 37.1447ZM48.2883 39.222V41.4023H47.2423V37.6309H48.2392V38.2963H48.2834C48.3669 38.077 48.5068 37.9035 48.7033 37.7758C48.8997 37.6465 49.1379 37.5818 49.4178 37.5818C49.6797 37.5818 49.908 37.6391 50.1028 37.7537C50.2976 37.8683 50.449 38.032 50.5571 38.2447C50.6651 38.4559 50.7191 38.708 50.7191 39.001V41.4023H49.6731V39.1876C49.6748 38.9568 49.6158 38.7767 49.4963 38.6474C49.3768 38.5165 49.2123 38.451 49.0028 38.451C48.862 38.451 48.7376 38.4813 48.6296 38.5418C48.5232 38.6024 48.4397 38.6908 48.3791 38.807C48.3202 38.9216 48.2899 39.0599 48.2883 39.222ZM53.1504 42.8952C52.8116 42.8952 52.521 42.8486 52.2788 42.7552C52.0381 42.6636 51.8466 42.5384 51.7042 42.3796C51.5618 42.2208 51.4693 42.0424 51.4268 41.8443L52.3942 41.7142C52.4236 41.7895 52.4703 41.8599 52.5341 41.9253C52.598 41.9908 52.6823 42.0432 52.787 42.0825C52.8934 42.1234 53.0227 42.1439 53.175 42.1439C53.4025 42.1439 53.5899 42.0882 53.7372 41.9769C53.8862 41.8672 53.9607 41.6831 53.9607 41.4244V40.7345H53.9165C53.8707 40.8392 53.8019 40.9383 53.7102 41.0316C53.6186 41.1249 53.5007 41.201 53.3567 41.2599C53.2126 41.3189 53.0407 41.3483 52.841 41.3483C52.5579 41.3483 52.3 41.2828 52.0676 41.1519C51.8368 41.0193 51.6526 40.8171 51.5151 40.5454C51.3793 40.2721 51.3113 39.9267 51.3113 39.5093C51.3113 39.082 51.3809 38.7252 51.5201 38.4387C51.6592 38.1523 51.8442 37.9378 52.075 37.7954C52.3074 37.653 52.5619 37.5818 52.8386 37.5818C53.0497 37.5818 53.2265 37.6178 53.3689 37.6898C53.5114 37.7602 53.6259 37.8486 53.7127 37.955C53.8011 38.0598 53.869 38.1629 53.9165 38.2644H53.9558V37.6309H54.9944V41.4392C54.9944 41.76 54.9158 42.0285 54.7587 42.2445C54.6015 42.4606 54.3838 42.6227 54.1056 42.7307C53.8289 42.8404 53.5105 42.8952 53.1504 42.8952ZM53.1725 40.5626C53.3411 40.5626 53.4835 40.5209 53.5997 40.4374C53.7176 40.3523 53.8076 40.2311 53.8698 40.074C53.9337 39.9152 53.9656 39.7253 53.9656 39.5043C53.9656 39.2834 53.9345 39.0918 53.8723 38.9298C53.8101 38.7661 53.7201 38.6392 53.6022 38.5492C53.4843 38.4592 53.3411 38.4142 53.1725 38.4142C53.0006 38.4142 52.8558 38.4608 52.7379 38.5541C52.6201 38.6458 52.5308 38.7735 52.4703 38.9372C52.4097 39.1009 52.3794 39.2899 52.3794 39.5043C52.3794 39.7221 52.4097 39.9103 52.4703 40.0691C52.5325 40.2262 52.6217 40.3482 52.7379 40.4349C52.8558 40.5201 53.0006 40.5626 53.1725 40.5626Z" fill="#FF4B4B"/>
</g>
<defs>
<filter id="filter0_d_3879_12659" x="0.661201" y="0.542851" width="78.89" height="49.266" filterUnits="userSpaceOnUse" color-interpolation-filters="sRGB">
<feFlood flood-opacity="0" result="BackgroundImageFix"/>
<feColorMatrix in="SourceAlpha" type="matrix" values="0 0 0 0 0 0 0 0 0 0 0 0 0 0 0 0 0 0 127 0" result="hardAlpha"/>
<feMorphology radius="1.72857" operator="dilate" in="SourceAlpha" result="effect1_dropShadow_3879_12659"/>
<feOffset dy="1.72857"/>
<feGaussianBlur stdDeviation="1.72857"/>
<feComposite in2="hardAlpha" operator="out"/>
<feColorMatrix type="matrix" values="0 0 0 0 0 0 0 0 0 0 0 0 0 0 0 0 0 0 0.12 0"/>
<feBlend mode="normal" in2="BackgroundImageFix" result="effect1_dropShadow_3879_12659"/>
<feBlend mode="normal" in="SourceGraphic" in2="effect1_dropShadow_3879_12659" result="shape"/>
</filter>
</defs>
</svg>
